
         <svg viewBox="0, 0, 400,246" xmlns="http://www.w3.org/2000/svg" xmlnsxlink="http://www.w3.org/1999/xlink" class="px-10 py-6 h-32 md:h-52">
    <g>
        <path id="path0" d="M90.999 0.405 C 89.846 0.600,88.764 0.774,88.594 0.791 C 88.425 0.808,88.286 0.919,88.286 1.038 C 88.286 1.157,88.147 1.231,87.978 1.201 C 87.621 1.139,84.830 1.944,84.464 2.215 C 84.328 2.315,83.690 2.594,83.046 2.835 C 82.401 3.076,81.874 3.360,81.874 3.466 C 81.874 3.573,81.530 3.736,81.109 3.828 C 80.689 3.920,80.134 4.207,79.876 4.464 C 79.619 4.722,79.325 4.947,79.223 4.966 C 78.639 5.071,77.699 5.661,76.826 6.470 C 76.280 6.977,75.699 7.394,75.536 7.395 C 75.373 7.397,75.127 7.592,74.989 7.830 C 74.851 8.067,74.734 8.168,74.730 8.053 C 74.718 7.718,69.297 13.376,69.297 13.723 C 69.297 13.897,69.075 14.158,68.804 14.303 C 68.533 14.449,68.311 14.713,68.311 14.890 C 68.311 15.068,68.030 15.535,67.688 15.930 C 67.345 16.324,67.000 16.896,66.921 17.201 C 66.842 17.506,66.699 17.756,66.603 17.756 C 66.374 17.756,65.598 19.392,65.598 19.875 C 65.598 20.082,65.504 20.193,65.388 20.121 C 65.273 20.050,65.040 20.451,64.872 21.014 C 64.703 21.576,64.422 22.266,64.246 22.547 C 64.071 22.828,63.789 23.668,63.621 24.414 C 63.452 25.160,63.226 25.883,63.118 26.020 C 62.796 26.430,62.147 30.588,62.146 32.244 C 62.146 33.092,62.055 33.785,61.945 33.785 C 61.672 33.785,61.800 36.738,62.229 40.348 C 62.581 43.315,62.725 44.061,63.125 45.006 C 63.240 45.277,63.537 46.248,63.785 47.164 C 64.033 48.080,64.308 48.829,64.396 48.829 C 64.485 48.829,64.705 49.328,64.885 49.938 C 65.065 50.549,65.288 51.048,65.381 51.048 C 65.539 51.048,66.191 52.644,66.038 52.657 C 66.000 52.660,66.109 52.827,66.282 53.027 C 66.455 53.227,67.278 54.428,68.111 55.695 C 68.944 56.963,69.773 58.057,69.954 58.126 C 70.135 58.196,70.284 58.369,70.284 58.510 C 70.284 58.827,74.245 62.885,74.553 62.885 C 74.675 62.885,74.993 63.163,75.260 63.502 C 75.527 63.841,75.894 64.118,76.076 64.118 C 76.259 64.118,76.445 64.202,76.490 64.303 C 76.626 64.609,79.265 66.338,79.595 66.338 C 79.764 66.338,79.901 66.440,79.901 66.564 C 79.901 66.688,80.399 66.980,81.008 67.213 C 81.616 67.445,82.240 67.787,82.394 67.973 C 82.548 68.159,82.872 68.311,83.113 68.311 C 83.354 68.311,84.145 68.589,84.871 68.929 C 85.596 69.268,86.606 69.615,87.115 69.700 C 87.623 69.784,88.039 69.962,88.039 70.095 C 88.039 70.228,88.220 70.267,88.441 70.182 C 88.661 70.098,88.967 70.133,89.121 70.260 C 89.274 70.387,89.954 70.562,90.631 70.648 C 94.677 71.163,95.749 71.266,97.473 71.306 C 98.525 71.330,99.459 71.276,99.549 71.187 C 99.639 71.097,100.221 71.024,100.843 71.024 C 102.301 71.024,106.042 70.503,106.042 70.299 C 106.042 70.213,106.236 70.130,106.473 70.114 C 107.172 70.067,109.853 69.266,109.988 69.065 C 110.055 68.963,110.425 68.803,110.809 68.709 C 111.193 68.615,112.202 68.209,113.052 67.808 C 113.902 67.406,114.714 67.078,114.856 67.078 C 114.998 67.078,115.178 66.911,115.256 66.708 C 115.334 66.504,115.551 66.338,115.738 66.338 C 115.926 66.338,116.538 66.005,117.100 65.598 C 117.662 65.191,118.207 64.858,118.311 64.858 C 118.415 64.858,118.639 64.636,118.808 64.365 C 118.978 64.094,119.261 63.872,119.438 63.872 C 119.875 63.872,126.017 57.808,126.017 57.377 C 126.017 57.301,126.572 56.506,127.250 55.610 C 127.928 54.714,128.483 53.886,128.483 53.769 C 128.483 53.653,128.872 52.967,129.346 52.247 C 129.821 51.526,130.210 50.798,130.210 50.629 C 130.210 50.460,130.487 49.694,130.827 48.926 C 131.359 47.723,131.935 45.922,132.305 44.308 C 132.362 44.060,132.466 43.672,132.537 43.445 C 132.787 42.640,133.141 39.553,133.192 37.731 C 133.221 36.714,133.356 35.809,133.492 35.719 C 133.658 35.611,133.652 35.324,133.474 34.856 C 133.327 34.471,133.142 33.046,133.062 31.689 C 132.910 29.090,132.584 27.375,131.704 24.538 C 131.410 23.588,131.156 22.673,131.141 22.503 C 131.126 22.334,131.030 22.195,130.928 22.195 C 130.826 22.195,130.669 21.862,130.580 21.455 C 130.490 21.048,130.315 20.715,130.190 20.715 C 130.065 20.715,129.989 20.632,130.020 20.530 C 130.079 20.338,128.994 17.973,128.747 17.756 C 128.670 17.688,128.396 17.244,128.138 16.769 C 127.880 16.295,127.321 15.462,126.896 14.920 C 126.471 14.377,125.932 13.631,125.698 13.261 C 125.125 12.353,120.171 7.398,119.836 7.398 C 119.690 7.398,119.051 6.964,118.417 6.433 C 117.134 5.359,113.085 3.087,111.652 2.637 C 111.144 2.477,110.727 2.273,110.727 2.184 C 110.727 2.095,110.145 1.885,109.433 1.718 C 108.721 1.551,107.937 1.310,107.691 1.183 C 105.571 0.088,95.604 -0.377,90.999 0.405 M186.313 0.289 C 185.364 0.413,184.420 0.581,184.217 0.662 C 184.014 0.742,183.681 0.832,183.477 0.861 C 182.426 1.012,179.779 2.014,176.896 3.352 C 176.192 3.679,175.512 3.946,175.385 3.946 C 175.257 3.946,175.021 4.105,174.859 4.300 C 174.698 4.494,174.102 4.894,173.534 5.188 C 172.967 5.483,172.414 5.878,172.306 6.068 C 172.197 6.257,171.994 6.412,171.855 6.412 C 171.196 6.412,166.199 11.056,164.661 13.098 C 164.417 13.422,163.736 14.322,163.147 15.099 C 162.558 15.876,161.467 17.763,160.722 19.292 C 158.848 23.140,158.663 23.596,158.302 25.277 C 158.127 26.091,157.907 26.813,157.812 26.880 C 157.635 27.008,157.525 27.675,157.057 31.443 C 156.634 34.852,157.124 43.109,157.803 44.011 C 157.909 44.152,158.136 44.932,158.307 45.746 C 158.631 47.277,158.789 47.689,160.245 50.801 C 161.302 53.062,163.217 56.279,163.666 56.547 C 163.847 56.656,163.995 56.903,163.995 57.097 C 163.995 57.290,164.276 57.633,164.619 57.858 C 164.963 58.083,165.190 58.320,165.125 58.385 C 164.941 58.570,168.974 62.639,169.341 62.639 C 169.520 62.639,169.667 62.750,169.667 62.887 C 169.667 63.199,172.915 65.601,173.145 65.459 C 173.238 65.401,173.379 65.522,173.457 65.726 C 173.536 65.931,173.853 66.208,174.161 66.341 C 174.470 66.474,174.889 66.683,175.092 66.804 C 175.894 67.282,178.564 68.557,178.765 68.557 C 178.882 68.557,179.408 68.743,179.933 68.971 C 180.458 69.198,180.999 69.412,181.134 69.445 C 181.270 69.478,181.936 69.684,182.614 69.903 C 184.305 70.449,187.551 71.023,188.950 71.023 C 189.586 71.023,190.158 71.107,190.221 71.208 C 190.350 71.418,194.008 71.409,194.575 71.198 C 194.778 71.122,195.888 70.992,197.041 70.910 C 198.194 70.827,199.525 70.660,200.000 70.537 C 203.255 69.697,204.812 69.229,205.269 68.953 C 205.559 68.778,206.267 68.489,206.843 68.310 C 207.420 68.131,207.891 67.892,207.891 67.778 C 207.891 67.664,208.069 67.571,208.285 67.571 C 208.501 67.571,208.986 67.352,209.361 67.085 C 209.736 66.818,210.114 66.670,210.200 66.756 C 210.287 66.843,210.358 66.791,210.358 66.642 C 210.358 66.493,210.607 66.293,210.912 66.197 C 211.432 66.035,213.538 64.705,213.810 64.368 C 213.878 64.284,214.713 63.598,215.667 62.843 C 216.620 62.089,217.747 61.076,218.171 60.593 C 218.595 60.110,219.018 59.790,219.110 59.882 C 219.201 59.974,219.240 59.933,219.194 59.791 C 219.126 59.576,219.979 58.372,221.086 57.123 C 221.888 56.217,223.898 53.003,224.152 52.219 C 224.317 51.711,224.547 51.295,224.663 51.295 C 224.779 51.295,224.952 51.045,225.046 50.740 C 225.141 50.435,225.417 49.741,225.661 49.199 C 226.680 46.925,227.867 42.263,227.867 40.534 C 227.867 40.077,227.966 39.704,228.087 39.704 C 228.208 39.704,228.315 37.818,228.325 35.512 C 228.334 33.206,228.249 31.319,228.136 31.319 C 228.023 31.319,227.856 30.563,227.765 29.638 C 227.674 28.713,227.446 27.409,227.259 26.740 C 226.429 23.777,226.038 22.556,225.882 22.441 C 225.789 22.374,225.632 22.041,225.531 21.702 C 225.320 20.988,223.691 17.692,223.460 17.509 C 223.374 17.441,223.140 17.053,222.940 16.646 C 222.610 15.974,221.106 13.891,219.852 12.368 C 218.747 11.026,215.506 7.913,214.687 7.407 C 214.205 7.109,213.810 6.770,213.810 6.655 C 213.810 6.540,213.560 6.368,213.255 6.274 C 212.950 6.180,212.534 5.948,212.330 5.758 C 211.721 5.190,210.291 4.320,209.371 3.958 C 208.896 3.771,208.342 3.481,208.138 3.313 C 207.935 3.145,207.297 2.868,206.720 2.698 C 206.144 2.528,205.672 2.295,205.672 2.180 C 205.672 2.066,205.589 1.990,205.487 2.012 C 205.385 2.034,205.136 1.988,204.932 1.910 C 203.676 1.430,202.219 1.042,202.216 1.186 C 202.214 1.280,202.130 1.229,202.031 1.073 C 201.480 0.211,190.928 -0.315,186.313 0.289 M100.247 12.824 C 100.330 12.959,100.675 13.070,101.011 13.070 C 101.897 13.070,105.402 13.822,105.548 14.043 C 105.616 14.146,106.255 14.422,106.967 14.657 C 107.679 14.891,108.261 15.188,108.261 15.316 C 108.261 15.444,108.517 15.646,108.829 15.764 C 109.617 16.064,111.674 17.461,112.653 18.362 C 114.512 20.072,115.927 21.619,116.214 22.256 C 116.382 22.629,116.604 22.935,116.707 22.935 C 116.810 22.935,117.137 23.490,117.433 24.168 C 117.729 24.846,118.050 25.401,118.145 25.401 C 118.301 25.401,118.579 26.164,118.764 27.102 C 118.802 27.292,118.932 27.514,119.052 27.596 C 119.346 27.793,120.067 30.759,120.207 32.347 C 120.215 32.437,120.305 32.595,120.407 32.696 C 120.665 32.954,120.640 38.224,120.381 38.224 C 120.265 38.224,120.105 38.922,120.025 39.774 C 119.946 40.626,119.745 41.652,119.579 42.055 C 119.413 42.457,119.258 42.842,119.235 42.910 C 119.212 42.978,119.109 43.255,119.006 43.527 C 118.903 43.798,118.701 44.353,118.555 44.760 C 118.410 45.166,118.143 45.675,117.962 45.889 C 117.781 46.103,117.633 46.368,117.633 46.477 C 117.633 47.024,115.132 50.369,113.704 51.732 C 111.441 53.892,111.436 53.896,110.543 54.352 C 110.102 54.576,109.741 54.856,109.741 54.973 C 109.741 55.091,109.436 55.263,109.063 55.356 C 108.690 55.449,108.218 55.673,108.015 55.854 C 107.811 56.035,107.035 56.378,106.289 56.617 C 105.543 56.856,104.877 57.125,104.809 57.215 C 103.764 58.593,91.359 58.412,89.945 56.998 C 89.792 56.845,89.514 56.720,89.327 56.720 C 88.758 56.720,85.327 54.978,85.327 54.689 C 85.327 54.540,85.258 54.487,85.174 54.571 C 85.090 54.655,84.871 54.590,84.687 54.427 C 84.503 54.264,84.052 53.909,83.684 53.637 C 82.596 52.836,80.148 50.385,80.148 50.098 C 80.148 49.952,79.926 49.714,79.655 49.568 C 79.383 49.423,79.162 49.177,79.162 49.021 C 79.162 48.865,78.951 48.508,78.693 48.228 C 78.126 47.612,76.449 44.348,76.449 43.861 C 76.449 43.670,76.300 43.294,76.118 43.027 C 75.801 42.560,75.225 40.183,75.148 39.026 C 75.127 38.721,75.023 38.471,74.917 38.471 C 74.810 38.471,74.723 37.139,74.723 35.512 C 74.723 33.587,74.814 32.552,74.985 32.552 C 75.129 32.552,75.220 32.358,75.186 32.121 C 74.954 30.462,77.276 24.239,78.695 22.716 C 78.952 22.441,79.162 22.140,79.162 22.048 C 79.162 21.957,79.411 21.643,79.716 21.351 C 80.022 21.059,80.826 20.187,81.504 19.413 C 82.182 18.639,82.880 18.005,83.053 18.004 C 83.227 18.003,83.431 17.841,83.507 17.644 C 83.583 17.447,84.051 17.037,84.547 16.734 C 85.044 16.431,85.783 15.980,86.190 15.732 C 87.271 15.072,88.872 14.379,89.368 14.356 C 89.489 14.350,89.657 14.233,89.742 14.095 C 89.828 13.957,90.990 13.621,92.325 13.348 C 93.660 13.075,94.814 12.790,94.889 12.715 C 95.136 12.468,100.089 12.569,100.247 12.824 M196.178 12.907 C 198.673 13.349,202.536 14.730,203.671 15.586 C 203.994 15.830,204.365 16.030,204.495 16.030 C 204.625 16.030,205.054 16.279,205.450 16.584 C 207.226 17.955,208.174 18.742,208.049 18.742 C 207.974 18.742,208.464 19.258,209.137 19.887 C 209.810 20.517,210.604 21.433,210.901 21.922 C 211.198 22.411,211.558 22.891,211.701 22.987 C 211.844 23.084,211.961 23.266,211.961 23.392 C 211.961 23.517,212.266 24.087,212.640 24.658 C 213.014 25.229,213.390 25.990,213.476 26.350 C 213.561 26.709,213.737 27.138,213.866 27.302 C 214.685 28.344,215.637 33.858,215.432 36.375 C 215.355 37.324,215.293 38.379,215.296 38.718 C 215.298 39.057,215.193 39.556,215.061 39.827 C 214.930 40.099,214.698 40.959,214.545 41.739 C 214.393 42.518,214.165 43.157,214.039 43.157 C 213.913 43.157,213.828 43.240,213.850 43.342 C 213.872 43.443,213.761 43.839,213.603 44.221 C 213.446 44.603,213.317 45.004,213.317 45.112 C 213.317 45.221,213.109 45.574,212.854 45.898 C 212.600 46.221,212.388 46.541,212.384 46.609 C 212.315 47.693,208.446 52.165,206.089 53.884 C 205.717 54.155,205.253 54.520,205.058 54.695 C 204.863 54.869,204.283 55.187,203.769 55.400 C 203.256 55.614,202.781 55.871,202.713 55.972 C 202.400 56.434,197.633 57.953,196.494 57.953 C 196.116 57.953,195.808 58.040,195.808 58.147 C 195.808 58.372,190.425 58.336,189.149 58.102 C 186.538 57.622,185.543 57.382,185.276 57.165 C 185.112 57.033,184.875 56.988,184.749 57.066 C 184.623 57.144,184.392 57.054,184.236 56.866 C 184.080 56.679,183.568 56.453,183.098 56.365 C 182.629 56.277,182.243 56.126,182.241 56.031 C 182.240 55.935,181.796 55.645,181.255 55.386 C 180.714 55.127,180.271 54.821,180.271 54.708 C 180.271 54.594,180.107 54.501,179.906 54.501 C 179.520 54.501,179.009 54.078,176.435 51.635 C 175.561 50.804,174.846 50.026,174.846 49.906 C 174.846 49.786,174.624 49.548,174.353 49.379 C 174.081 49.210,173.859 48.953,173.859 48.809 C 173.859 48.665,173.554 48.084,173.181 47.517 C 172.437 46.385,171.828 45.161,171.443 44.020 C 171.305 43.613,171.109 43.058,171.007 42.787 C 170.905 42.515,170.839 42.210,170.861 42.109 C 170.883 42.007,170.803 41.924,170.685 41.924 C 170.567 41.924,170.392 41.396,170.296 40.752 C 170.200 40.108,170.072 39.359,170.010 39.088 C 169.531 36.977,169.980 30.244,170.682 29.006 C 170.826 28.751,170.995 28.264,171.057 27.924 C 171.167 27.313,172.821 23.913,173.124 23.674 C 173.210 23.607,173.494 23.169,173.755 22.701 C 174.936 20.586,178.493 17.159,180.681 16.030 C 181.337 15.691,181.930 15.358,181.998 15.290 C 182.204 15.083,183.823 14.325,184.217 14.250 C 184.420 14.212,184.644 14.104,184.715 14.011 C 184.785 13.919,186.004 13.606,187.423 13.317 C 188.843 13.028,190.059 12.736,190.125 12.670 C 190.268 12.527,195.101 12.717,196.178 12.907 M48.037 81.154 C 47.670 81.252,47.060 81.551,46.681 81.818 C 46.302 82.085,45.753 82.377,45.461 82.468 C 45.168 82.559,44.866 82.795,44.790 82.993 C 44.714 83.192,44.547 83.354,44.419 83.354 C 44.214 83.354,41.976 84.721,41.307 85.253 C 41.171 85.362,40.727 85.616,40.321 85.820 C 39.914 86.023,39.525 86.250,39.457 86.325 C 39.139 86.675,37.031 88.069,36.252 88.445 C 36.048 88.543,35.737 88.825,35.559 89.071 C 35.382 89.318,35.094 89.519,34.919 89.519 C 34.744 89.519,34.371 89.713,34.091 89.951 C 32.741 91.092,32.552 91.228,32.549 91.058 C 32.547 90.958,32.463 90.990,32.364 91.130 C 32.264 91.270,31.572 91.823,30.826 92.358 C 30.080 92.893,29.323 93.472,29.144 93.645 C 28.965 93.817,28.740 93.958,28.644 93.958 C 28.487 93.958,27.390 94.851,26.366 95.811 C 26.152 96.013,25.859 96.178,25.717 96.178 C 25.574 96.178,25.276 96.455,25.054 96.794 C 24.831 97.133,24.526 97.411,24.375 97.411 C 24.223 97.411,23.639 97.827,23.076 98.335 C 22.513 98.844,21.296 99.926,20.372 100.740 C 18.162 102.685,13.912 106.998,12.824 108.400 C 12.349 109.011,11.655 109.803,11.282 110.160 C 10.909 110.517,10.604 110.914,10.604 111.042 C 10.604 111.254,10.330 111.597,9.063 112.972 C 8.826 113.229,8.688 113.440,8.757 113.440 C 8.917 113.440,6.934 116.353,6.657 116.524 C 6.543 116.594,6.379 116.974,6.292 117.368 C 6.206 117.762,5.997 118.138,5.828 118.202 C 5.660 118.267,5.371 118.777,5.186 119.336 C 5.002 119.895,4.711 120.468,4.541 120.610 C 4.370 120.751,4.091 121.410,3.921 122.074 C 3.751 122.737,3.533 123.231,3.436 123.171 C 3.339 123.111,3.065 123.782,2.826 124.663 C 2.588 125.543,2.308 126.264,2.205 126.264 C 2.101 126.264,1.930 126.736,1.824 127.312 C 1.719 127.888,1.619 128.416,1.604 128.483 C 1.588 128.551,1.485 128.995,1.376 129.470 C 1.266 129.945,1.086 130.445,0.977 130.582 C 0.015 131.784,-0.261 147.303,0.588 152.404 C 1.055 155.212,1.934 159.315,2.198 159.926 C 2.316 160.197,2.615 161.307,2.864 162.392 C 3.113 163.477,3.386 164.420,3.470 164.488 C 3.555 164.556,3.819 165.416,4.058 166.400 C 4.297 167.383,4.570 168.187,4.666 168.187 C 4.761 168.187,4.985 168.770,5.164 169.482 C 5.343 170.194,5.571 170.888,5.672 171.023 C 5.870 171.291,6.470 173.019,6.570 173.608 C 6.604 173.809,6.749 174.013,6.892 174.060 C 7.035 174.108,7.152 174.300,7.152 174.488 C 7.152 174.945,7.907 177.157,8.116 177.312 C 8.207 177.380,8.439 177.935,8.631 178.545 C 8.823 179.155,9.339 180.351,9.777 181.201 C 10.214 182.051,10.441 182.681,10.280 182.601 C 10.119 182.520,10.166 182.602,10.383 182.782 C 10.601 182.962,10.863 183.386,10.965 183.725 C 11.067 184.063,11.679 185.450,12.325 186.806 C 12.971 188.163,13.577 189.522,13.671 189.827 C 13.766 190.133,13.925 190.382,14.024 190.382 C 14.123 190.382,14.347 190.776,14.521 191.258 C 14.695 191.740,15.201 192.777,15.645 193.563 C 16.089 194.348,16.650 195.508,16.891 196.139 C 17.132 196.771,17.426 197.287,17.543 197.287 C 17.660 197.287,17.756 197.439,17.756 197.624 C 17.756 197.809,18.004 198.275,18.306 198.660 C 18.623 199.063,18.701 199.279,18.491 199.168 C 18.221 199.027,18.227 199.062,18.516 199.304 C 18.731 199.483,18.981 199.928,19.072 200.291 C 19.162 200.655,19.407 201.123,19.616 201.332 C 19.825 201.541,20.113 202.048,20.256 202.459 C 20.400 202.870,20.623 203.206,20.754 203.206 C 20.884 203.206,20.915 203.329,20.821 203.480 C 20.728 203.631,20.752 203.825,20.874 203.912 C 20.995 203.998,21.233 204.346,21.401 204.686 C 21.569 205.025,22.149 206.079,22.690 207.028 C 23.231 207.978,23.795 209.060,23.945 209.433 C 24.094 209.806,24.299 210.111,24.401 210.111 C 24.503 210.111,24.793 210.610,25.044 211.221 C 25.296 211.831,25.581 212.330,25.678 212.330 C 25.774 212.330,26.044 212.830,26.277 213.440 C 26.510 214.051,26.780 214.550,26.876 214.550 C 26.973 214.550,27.261 215.022,27.517 215.598 C 27.772 216.174,28.122 216.793,28.294 216.972 C 28.466 217.151,28.607 217.460,28.607 217.658 C 28.607 217.856,28.772 218.082,28.975 218.159 C 29.178 218.237,29.282 218.400,29.207 218.522 C 29.132 218.643,29.166 218.742,29.282 218.742 C 29.399 218.742,29.634 219.131,29.806 219.605 C 29.978 220.080,30.215 220.469,30.332 220.469 C 30.450 220.469,30.620 220.700,30.710 220.983 C 30.859 221.455,32.262 223.880,32.552 224.168 C 32.620 224.236,32.797 224.513,32.945 224.784 C 34.478 227.594,34.882 228.291,35.173 228.626 C 35.359 228.840,35.512 229.112,35.512 229.229 C 35.512 229.347,35.772 229.838,36.091 230.320 C 36.410 230.802,37.017 231.751,37.441 232.429 C 37.865 233.107,38.325 233.796,38.465 233.960 C 38.604 234.124,38.718 234.350,38.718 234.462 C 38.718 234.669,40.224 237.130,40.665 237.643 C 40.798 237.798,40.840 237.993,40.758 238.075 C 40.676 238.157,40.738 238.224,40.896 238.224 C 41.054 238.224,41.184 238.341,41.184 238.484 C 41.184 238.627,41.682 239.507,42.291 240.440 C 42.900 241.373,43.528 242.422,43.687 242.770 C 43.846 243.118,44.075 243.403,44.197 243.403 C 44.319 243.403,44.357 243.503,44.282 243.624 C 44.207 243.745,44.319 243.911,44.530 243.992 C 44.741 244.073,44.860 244.227,44.795 244.333 C 44.729 244.439,45.118 244.967,45.660 245.506 L 46.645 246.486 49.608 246.569 C 53.632 246.681,55.423 245.888,55.878 243.793 C 55.968 243.375,56.164 242.956,56.313 242.862 C 56.669 242.635,56.671 238.994,56.315 238.766 C 56.167 238.672,55.960 238.317,55.855 237.978 C 55.749 237.639,55.419 237.028,55.121 236.621 C 54.823 236.215,54.437 235.521,54.264 235.080 C 54.090 234.639,53.850 234.279,53.731 234.279 C 53.612 234.279,53.514 234.165,53.514 234.026 C 53.514 233.888,52.980 232.968,52.327 231.982 C 51.255 230.363,50.760 229.480,50.699 229.082 C 50.688 229.005,50.484 228.747,50.247 228.510 C 50.009 228.272,49.815 227.920,49.815 227.726 C 49.815 227.532,49.732 227.374,49.630 227.374 C 49.528 227.374,49.171 226.846,48.836 226.202 C 48.134 224.850,47.335 223.631,46.979 223.370 C 46.815 223.249,46.815 223.186,46.979 223.181 C 47.127 223.177,47.119 223.101,46.960 222.993 C 46.813 222.893,46.525 222.478,46.319 222.072 C 45.547 220.549,44.990 219.646,44.451 219.044 C 44.146 218.703,43.896 218.281,43.896 218.107 C 43.896 217.933,43.722 217.617,43.509 217.404 C 43.296 217.190,43.202 217.016,43.301 217.016 C 43.399 217.016,43.309 216.822,43.101 216.584 C 42.892 216.347,42.646 215.903,42.553 215.598 C 42.460 215.293,42.292 215.043,42.180 215.043 C 42.069 215.043,41.800 214.601,41.584 214.060 C 41.367 213.519,40.967 212.853,40.694 212.580 C 40.421 212.307,40.197 211.862,40.197 211.591 C 40.197 211.319,40.108 211.097,40.000 211.097 C 39.891 211.097,39.555 210.626,39.252 210.049 C 38.949 209.473,38.511 208.668,38.279 208.261 C 37.518 206.927,35.875 204.084,35.429 203.329 C 35.188 202.922,34.819 202.201,34.607 201.726 C 34.396 201.252,34.146 200.808,34.052 200.740 C 33.958 200.672,33.656 200.173,33.382 199.630 C 31.422 195.759,29.510 192.177,29.238 191.864 C 29.060 191.659,28.767 191.076,28.587 190.567 C 28.408 190.059,28.190 189.642,28.103 189.642 C 28.017 189.642,27.797 189.193,27.616 188.644 C 27.435 188.094,27.195 187.588,27.084 187.519 C 26.862 187.382,24.988 183.547,24.862 182.972 C 24.819 182.776,24.618 182.480,24.414 182.315 C 24.211 182.149,24.130 182.010,24.235 182.005 C 24.339 182.001,24.099 181.359,23.702 180.580 C 23.304 179.800,22.629 178.329,22.201 177.312 C 21.773 176.295,21.270 175.129,21.082 174.723 C 19.924 172.210,19.482 171.138,19.482 170.844 C 19.482 170.661,19.252 170.072,18.971 169.534 C 18.689 168.997,18.296 167.951,18.097 167.209 C 17.897 166.467,17.648 165.801,17.542 165.729 C 17.436 165.657,17.202 165.043,17.021 164.365 C 16.841 163.687,16.583 162.991,16.449 162.818 C 16.315 162.645,16.276 162.433,16.362 162.347 C 16.448 162.261,16.426 162.070,16.312 161.922 C 16.199 161.773,15.958 161.097,15.778 160.419 C 15.597 159.741,15.382 159.131,15.299 159.063 C 15.126 158.922,14.158 154.103,14.245 153.822 C 14.277 153.721,14.208 153.637,14.091 153.637 C 13.815 153.637,13.094 148.947,13.020 146.671 C 13.004 146.162,12.897 145.746,12.784 145.746 C 12.500 145.746,12.521 138.658,12.805 138.483 C 12.930 138.405,13.001 137.896,12.962 137.352 C 12.924 136.807,12.988 136.303,13.104 136.230 C 13.221 136.158,13.319 135.800,13.322 135.436 C 13.325 135.071,13.497 134.051,13.705 133.169 C 13.912 132.287,14.100 131.372,14.122 131.134 C 14.144 130.897,14.239 130.703,14.333 130.703 C 14.427 130.703,14.647 130.148,14.820 129.470 C 14.994 128.792,15.218 128.237,15.317 128.237 C 15.497 128.237,16.041 126.821,16.012 126.426 C 16.004 126.312,16.198 126.066,16.445 125.879 C 16.691 125.693,16.803 125.536,16.694 125.532 C 16.515 125.525,17.090 124.325,17.580 123.682 C 17.754 123.453,18.977 121.599,19.605 120.610 C 19.741 120.397,19.908 120.166,19.977 120.099 C 20.045 120.031,20.398 119.577,20.760 119.091 C 21.122 118.604,21.927 117.661,22.547 116.995 C 23.168 116.328,24.147 115.214,24.723 114.518 C 25.299 113.822,26.068 113.049,26.431 112.801 C 26.795 112.553,27.038 112.262,26.972 112.155 C 26.905 112.048,26.950 111.961,27.070 111.961 C 27.287 111.961,29.579 109.991,30.873 108.693 C 31.245 108.320,31.660 108.015,31.796 108.015 C 31.931 108.015,32.166 107.783,32.317 107.500 C 32.468 107.218,32.661 107.055,32.746 107.140 C 32.830 107.224,33.182 107.009,33.527 106.662 C 34.269 105.916,37.397 103.559,39.827 101.913 C 40.777 101.270,41.642 100.604,41.751 100.434 C 41.859 100.263,42.103 100.123,42.292 100.123 C 42.481 100.123,42.785 99.909,42.969 99.647 C 43.152 99.386,43.602 99.096,43.969 99.004 C 44.336 98.912,44.636 98.758,44.636 98.662 C 44.636 98.566,45.080 98.238,45.623 97.933 C 46.165 97.629,46.609 97.300,46.609 97.204 C 46.609 97.108,47.025 96.811,47.534 96.544 C 48.043 96.277,48.514 95.990,48.582 95.906 C 48.788 95.651,50.419 94.840,50.617 94.894 C 50.718 94.922,50.801 94.839,50.801 94.709 C 50.801 94.580,51.190 94.290,51.665 94.065 C 52.139 93.840,52.528 93.557,52.528 93.437 C 52.528 93.317,52.694 93.218,52.898 93.218 C 53.101 93.218,53.271 93.135,53.274 93.033 C 53.278 92.932,53.694 92.591,54.199 92.277 C 55.893 91.224,56.988 88.046,56.425 85.820 C 56.127 84.645,55.470 83.332,55.109 83.193 C 54.910 83.117,54.747 82.913,54.747 82.741 C 54.747 82.568,54.414 82.289,54.007 82.121 C 53.600 81.952,53.268 81.728,53.268 81.622 C 53.268 81.051,49.635 80.725,48.037 81.154 M125.401 81.046 C 125.129 81.105,124.653 81.208,124.343 81.275 C 124.032 81.341,123.828 81.476,123.889 81.575 C 123.950 81.674,123.571 81.964,123.047 82.219 C 122.523 82.474,122.113 82.750,122.137 82.833 C 122.160 82.916,121.868 83.448,121.487 84.016 C 120.401 85.633,120.436 90.150,121.541 90.999 C 121.828 91.219,122.318 92.216,122.318 92.578 C 122.318 92.772,122.401 92.968,122.503 93.013 C 122.744 93.120,124.784 97.236,124.784 97.614 C 124.784 97.774,124.877 97.904,124.991 97.904 C 125.105 97.904,125.347 98.353,125.528 98.903 C 125.709 99.452,125.946 99.956,126.054 100.023 C 126.256 100.148,127.234 102.235,127.218 102.505 C 127.212 102.589,127.308 102.725,127.429 102.808 C 127.682 102.981,129.470 106.658,129.470 107.005 C 129.470 107.131,129.553 107.271,129.655 107.316 C 129.864 107.409,131.544 110.802,131.801 111.652 C 131.893 111.957,132.060 112.207,132.170 112.207 C 132.353 112.207,132.594 112.756,132.808 113.662 C 132.853 113.852,132.980 114.074,133.091 114.155 C 133.202 114.237,133.714 115.191,134.229 116.276 C 134.745 117.361,135.269 118.416,135.394 118.619 C 135.519 118.822,135.800 119.377,136.019 119.852 C 136.237 120.327,136.518 120.882,136.643 121.085 C 136.891 121.491,137.429 122.616,137.468 122.811 C 137.481 122.879,137.581 123.075,137.690 123.247 C 137.799 123.419,138.330 124.430,138.870 125.494 C 140.460 128.628,142.330 129.963,145.128 129.963 C 145.994 129.963,146.772 129.852,146.856 129.716 C 146.940 129.581,147.215 129.470,147.468 129.470 C 147.721 129.470,148.257 129.192,148.660 128.853 C 149.063 128.514,149.488 128.234,149.604 128.230 C 149.886 128.220,151.273 125.881,151.683 124.723 C 151.863 124.214,152.084 123.798,152.174 123.798 C 152.264 123.798,152.537 123.271,152.780 122.626 C 153.023 121.982,153.293 121.400,153.380 121.332 C 153.619 121.144,156.597 115.036,156.597 114.733 C 156.597 114.587,156.682 114.431,156.787 114.386 C 156.892 114.340,158.467 111.307,160.288 107.645 C 162.108 103.983,163.687 100.949,163.797 100.904 C 163.906 100.859,163.995 100.694,163.995 100.537 C 163.995 100.141,165.768 96.566,166.014 96.465 C 166.124 96.420,166.215 96.260,166.215 96.111 C 166.215 95.961,166.891 94.471,167.718 92.801 C 168.545 91.130,169.281 89.292,169.354 88.716 C 169.427 88.141,169.597 87.531,169.731 87.361 C 169.895 87.153,169.884 87.053,169.697 87.053 C 169.545 87.053,169.420 86.748,169.419 86.375 C 169.417 85.507,168.960 83.847,168.722 83.847 C 168.622 83.847,168.350 83.525,168.117 83.131 C 167.884 82.737,167.167 82.098,166.523 81.713 L 165.351 81.011 145.623 80.975 C 134.772 80.955,125.672 80.988,125.401 81.046 M238.029 81.130 C 237.583 81.236,237.019 81.502,236.777 81.722 C 236.534 81.941,236.263 82.121,236.174 82.121 C 235.762 82.121,234.275 84.055,234.134 84.775 C 234.047 85.217,233.894 85.629,233.795 85.691 C 233.527 85.857,233.485 88.779,233.751 88.779 C 233.875 88.779,234.052 89.179,234.144 89.668 C 234.363 90.838,236.458 92.949,237.749 93.301 C 238.078 93.391,271.779 93.463,312.639 93.462 L 386.930 93.459 386.956 94.017 C 386.987 94.662,386.985 94.693,386.670 99.260 C 386.539 101.159,386.310 103.545,386.163 104.562 C 386.015 105.580,385.877 106.883,385.857 107.460 C 385.837 108.036,385.758 108.508,385.681 108.508 C 385.605 108.508,385.405 109.701,385.236 111.159 C 385.066 112.617,384.771 114.365,384.578 115.043 C 384.385 115.721,384.107 116.942,383.959 117.756 C 383.602 119.715,383.608 119.692,383.445 119.975 C 383.367 120.111,383.160 121.082,382.985 122.133 C 382.811 123.184,382.566 124.044,382.441 124.044 C 382.317 124.044,382.284 124.155,382.367 124.291 C 382.618 124.696,375.850 124.143,375.133 123.699 C 374.848 123.523,368.684 122.773,367.720 122.797 C 367.395 122.805,367.006 122.714,366.857 122.595 C 366.707 122.476,365.253 122.246,363.625 122.084 C 361.998 121.922,360.372 121.696,360.012 121.582 C 359.653 121.468,357.600 121.177,355.450 120.937 C 353.300 120.696,351.486 120.436,351.418 120.360 C 351.350 120.284,351.184 120.221,351.048 120.220 C 350.046 120.212,342.366 119.245,342.170 119.102 C 342.035 119.003,339.982 118.722,337.608 118.476 C 335.234 118.231,333.237 117.958,333.169 117.868 C 333.101 117.779,332.269 117.630,331.319 117.536 C 330.370 117.443,329.084 117.306,328.463 117.232 C 327.841 117.159,326.842 117.230,326.243 117.392 C 325.644 117.553,325.151 117.645,325.148 117.597 C 325.145 117.549,324.820 117.808,324.425 118.174 C 324.031 118.540,323.617 118.783,323.506 118.715 C 323.395 118.646,323.304 118.680,323.304 118.789 C 323.304 118.899,323.019 119.321,322.670 119.726 C 322.321 120.132,321.974 120.770,321.899 121.144 C 321.824 121.519,321.659 121.825,321.530 121.825 C 321.189 121.825,321.362 125.034,321.743 125.764 C 321.922 126.107,322.069 126.514,322.070 126.669 C 322.071 126.824,322.245 127.018,322.457 127.099 C 322.669 127.180,322.784 127.342,322.712 127.458 C 322.640 127.574,322.831 127.880,323.135 128.138 C 324.556 129.341,326.140 130.580,326.257 130.580 C 326.384 130.580,326.760 130.888,328.097 132.087 C 328.457 132.411,328.831 132.676,328.926 132.676 C 329.090 132.676,330.079 133.426,330.991 134.240 C 331.217 134.442,331.466 134.543,331.545 134.464 C 331.625 134.385,331.689 134.436,331.689 134.577 C 331.689 134.719,332.327 135.265,333.107 135.790 C 333.887 136.315,334.670 136.939,334.848 137.176 C 335.025 137.414,335.326 137.608,335.517 137.608 C 335.708 137.608,335.983 137.830,336.128 138.101 C 336.273 138.372,336.511 138.594,336.656 138.594 C 336.884 138.594,337.401 138.958,338.779 140.087 C 338.949 140.226,339.088 140.281,339.088 140.209 C 339.088 140.137,339.403 140.409,339.789 140.813 C 340.175 141.217,340.564 141.475,340.653 141.386 C 340.741 141.297,340.814 141.351,340.814 141.506 C 340.814 141.661,341.119 141.949,341.492 142.146 C 341.865 142.343,342.531 142.839,342.972 143.248 C 343.412 143.657,343.773 143.935,343.773 143.865 C 343.773 143.795,343.922 143.885,344.104 144.064 C 344.286 144.243,344.807 144.667,345.263 145.006 C 345.718 145.345,346.280 145.806,346.511 146.030 C 346.741 146.254,347.150 146.507,347.419 146.592 C 347.688 146.678,348.240 147.049,348.645 147.418 C 349.051 147.787,349.684 148.311,350.052 148.582 C 350.420 148.853,350.994 149.325,351.328 149.630 C 351.661 149.935,352.012 150.186,352.107 150.187 C 352.203 150.189,352.742 150.549,353.305 150.989 C 353.868 151.428,354.638 152.010,355.016 152.281 C 355.393 152.552,355.975 153.024,356.309 153.329 C 356.643 153.634,357.004 153.884,357.113 153.884 C 357.222 153.884,357.586 154.134,357.921 154.439 C 358.257 154.744,358.841 155.216,359.218 155.487 C 359.596 155.758,360.104 156.174,360.347 156.412 C 360.590 156.649,360.789 156.784,360.789 156.710 C 360.789 156.637,361.030 156.802,361.323 157.075 C 361.617 157.349,362.311 157.880,362.865 158.256 C 363.419 158.632,364.017 159.134,364.194 159.371 C 364.371 159.609,364.671 159.803,364.860 159.803 C 365.049 159.803,365.292 159.950,365.401 160.130 C 365.509 160.310,365.959 160.667,366.400 160.923 C 367.166 161.368,367.445 161.776,366.984 161.776 C 366.865 161.776,366.630 162.109,366.461 162.515 C 366.293 162.922,366.069 163.255,365.965 163.255 C 365.860 163.255,365.597 163.699,365.380 164.242 C 365.163 164.784,364.881 165.228,364.754 165.228 C 364.626 165.228,364.451 165.449,364.365 165.720 C 364.280 165.990,364.078 166.351,363.917 166.521 C 363.757 166.692,363.427 167.219,363.186 167.694 C 362.542 168.958,359.872 172.766,359.001 173.662 C 358.764 173.906,358.570 174.192,358.570 174.296 C 358.570 174.401,358.235 174.893,357.826 175.389 L 357.082 176.291 356.072 175.630 C 355.517 175.267,355.004 175.006,354.932 175.052 C 354.861 175.097,354.734 175.029,354.651 174.900 C 354.569 174.771,353.835 174.296,353.021 173.844 C 352.207 173.392,351.486 172.951,351.418 172.866 C 351.350 172.780,350.468 172.275,349.459 171.743 C 348.449 171.212,347.401 170.583,347.131 170.345 C 346.861 170.108,346.502 169.914,346.334 169.914 C 346.165 169.914,345.870 169.756,345.677 169.563 C 345.484 169.370,344.936 169.010,344.459 168.762 C 342.454 167.720,341.440 167.123,341.099 166.782 C 340.744 166.426,339.917 166.035,339.485 166.019 C 339.365 166.014,339.198 165.916,339.115 165.802 C 338.892 165.494,335.972 163.748,335.680 163.748 C 335.542 163.748,335.393 163.658,335.347 163.547 C 335.274 163.367,332.978 162.000,330.506 160.666 C 330.004 160.395,329.538 160.116,329.470 160.047 C 329.402 159.978,328.625 159.486,327.744 158.954 C 326.862 158.422,326.085 157.915,326.017 157.828 C 325.949 157.741,325.367 157.456,324.723 157.195 C 324.080 156.934,323.553 156.636,323.552 156.533 C 323.552 156.430,323.107 156.169,322.565 155.951 C 322.022 155.734,321.578 155.471,321.578 155.367 C 321.578 155.262,321.236 155.035,320.817 154.862 C 320.399 154.688,319.927 154.425,319.769 154.277 C 319.475 154.001,318.184 153.255,316.646 152.473 C 316.171 152.232,315.643 151.903,315.472 151.741 C 315.301 151.580,314.774 151.308,314.301 151.137 C 313.827 150.966,313.440 150.731,313.440 150.616 C 313.440 150.501,313.052 150.244,312.577 150.046 C 312.102 149.847,311.714 149.598,311.714 149.491 C 311.714 149.385,311.298 149.149,310.789 148.967 C 310.281 148.785,309.792 148.525,309.705 148.389 C 308.764 146.933,301.850 149.093,301.850 150.842 C 301.850 151.023,301.749 151.171,301.627 151.171 C 300.669 151.171,300.613 156.886,301.564 157.578 C 301.661 157.649,301.948 158.178,302.202 158.755 C 302.456 159.331,302.758 159.803,302.873 159.803 C 302.988 159.803,303.083 159.916,303.083 160.054 C 303.083 160.193,303.384 160.775,303.753 161.349 C 304.121 161.923,304.428 162.448,304.434 162.515 C 304.453 162.712,306.116 165.585,306.290 165.721 C 306.376 165.789,306.912 166.677,307.481 167.694 C 308.050 168.711,308.849 170.099,309.257 170.777 C 309.665 171.455,310.184 172.371,310.409 172.811 C 310.634 173.252,310.909 173.613,311.020 173.613 C 311.130 173.613,311.221 173.754,311.221 173.925 C 311.221 174.097,311.511 174.665,311.865 175.186 C 312.219 175.708,312.813 176.705,313.183 177.402 C 313.554 178.098,314.086 179.069,314.365 179.559 C 314.645 180.049,315.023 180.715,315.205 181.039 C 315.387 181.363,315.603 181.683,315.684 181.751 C 315.765 181.819,316.110 182.374,316.451 182.984 C 316.792 183.594,317.305 184.482,317.591 184.957 C 317.878 185.432,318.297 186.153,318.523 186.560 C 318.749 186.967,319.058 187.381,319.208 187.481 C 319.365 187.585,319.377 187.665,319.236 187.670 C 319.071 187.675,319.071 187.737,319.236 187.858 C 319.371 187.958,319.681 188.428,319.924 188.903 C 320.167 189.377,320.501 189.988,320.667 190.259 C 320.832 190.530,321.294 191.307,321.693 191.985 C 322.092 192.663,322.491 193.274,322.581 193.342 C 322.798 193.505,323.743 195.377,323.750 195.657 C 323.753 195.777,323.863 195.944,323.995 196.027 C 324.126 196.110,324.458 196.579,324.732 197.069 C 325.007 197.559,325.380 198.224,325.563 198.548 C 325.745 198.872,325.961 199.192,326.042 199.260 C 326.124 199.328,326.392 199.827,326.639 200.370 C 326.885 200.912,327.231 201.528,327.408 201.738 C 327.786 202.187,329.029 204.483,328.925 204.542 C 328.885 204.564,328.021 205.192,327.004 205.937 C 325.986 206.682,324.572 207.659,323.860 208.110 C 323.149 208.560,322.623 209.019,322.691 209.130 C 322.760 209.240,322.491 209.402,322.094 209.489 C 321.698 209.577,321.318 209.790,321.252 209.964 C 321.185 210.138,320.735 210.468,320.252 210.697 C 319.768 210.926,318.652 211.582,317.771 212.154 C 314.221 214.457,313.933 214.597,313.933 214.023 C 313.933 213.869,313.684 213.491,313.379 213.183 C 312.639 212.437,312.207 211.892,312.207 211.704 C 312.207 211.520,310.463 209.325,310.111 209.067 C 309.975 208.967,309.948 208.884,310.049 208.882 C 310.151 208.880,310.040 208.664,309.803 208.402 C 309.565 208.140,309.094 207.568,308.755 207.131 C 308.416 206.694,307.944 206.163,307.707 205.950 C 307.469 205.737,307.275 205.448,307.275 205.309 C 307.275 205.170,307.025 204.760,306.720 204.398 C 305.492 202.942,305.318 202.718,304.895 202.051 C 304.517 201.455,303.182 199.709,301.958 198.209 C 301.763 197.970,301.603 197.692,301.603 197.590 C 301.603 197.489,301.353 197.129,301.048 196.792 C 300.743 196.454,300.105 195.642,299.630 194.987 C 299.155 194.333,298.490 193.489,298.150 193.112 C 297.811 192.736,297.367 192.171,297.164 191.857 C 296.961 191.544,296.628 191.106,296.424 190.884 C 296.221 190.662,295.625 189.848,295.099 189.075 C 294.574 188.302,294.047 187.670,293.928 187.670 C 293.809 187.670,293.711 187.555,293.711 187.416 C 293.711 187.182,292.269 185.165,291.379 184.155 C 291.170 183.918,290.999 183.653,290.999 183.567 C 290.999 183.481,290.749 183.172,290.444 182.882 C 290.139 182.591,289.445 181.693,288.903 180.887 C 288.360 180.080,287.750 179.240,287.546 179.020 C 286.907 178.327,286.313 177.558,286.313 177.422 C 286.313 177.290,286.259 177.219,285.261 176.049 C 284.958 175.694,284.523 175.139,284.294 174.816 C 284.066 174.493,283.317 173.475,282.630 172.553 C 281.943 171.632,281.380 170.799,281.379 170.704 C 281.378 170.488,279.847 169.562,279.593 169.623 C 279.491 169.647,279.408 169.565,279.408 169.440 C 279.408 168.621,275.007 168.465,273.613 169.234 C 273.206 169.458,272.623 169.755,272.318 169.895 C 272.013 170.034,271.763 170.234,271.763 170.339 C 271.763 170.444,271.485 170.853,271.146 171.247 C 270.808 171.641,270.530 172.161,270.530 172.404 C 270.530 172.646,270.424 172.909,270.294 172.990 C 270.165 173.070,270.117 173.287,270.188 173.472 C 270.259 173.658,270.199 173.883,270.054 173.972 C 269.739 174.167,269.698 175.993,270.005 176.182 C 270.123 176.255,270.297 177.208,270.392 178.300 C 270.487 179.391,270.603 180.531,270.650 180.833 C 270.739 181.411,271.083 184.081,271.150 184.710 C 271.172 184.914,271.254 185.247,271.332 185.450 C 271.443 185.736,272.162 191.555,272.369 193.839 C 272.388 194.045,272.467 194.322,272.545 194.456 C 272.624 194.589,272.823 196.030,272.989 197.657 C 273.155 199.285,273.352 200.783,273.427 200.986 C 273.628 201.531,273.690 201.971,274.149 206.165 C 274.379 208.268,274.668 210.056,274.790 210.139 C 274.913 210.223,274.987 210.611,274.956 211.002 C 274.924 211.394,274.960 211.880,275.034 212.084 C 275.109 212.287,275.301 213.775,275.461 215.390 C 275.622 217.004,275.844 218.503,275.956 218.719 C 276.068 218.935,276.281 220.277,276.428 221.702 C 276.575 223.126,276.766 224.957,276.851 225.771 C 276.937 226.584,277.104 227.507,277.221 227.821 C 277.687 229.063,277.503 229.558,276.510 229.738 C 276.002 229.830,275.396 230.003,275.164 230.122 C 274.932 230.242,273.878 230.511,272.821 230.719 C 271.765 230.928,270.678 231.195,270.407 231.313 C 269.789 231.580,265.232 232.306,264.169 232.306 C 263.734 232.306,263.379 232.401,263.379 232.517 C 263.379 232.688,257.654 233.394,254.377 233.628 C 253.969 233.657,253.520 233.753,253.378 233.841 C 253.236 233.928,251.072 234.068,248.570 234.150 C 246.067 234.233,242.698 234.345,241.083 234.400 C 239.468 234.454,238.081 234.595,238.000 234.711 C 237.920 234.828,237.522 235.060,237.115 235.228 C 235.974 235.697,234.610 237.096,234.272 238.142 C 234.105 238.662,233.882 239.199,233.778 239.334 C 233.471 239.733,233.587 242.207,233.946 242.894 C 234.127 243.242,234.276 243.661,234.277 243.826 C 234.279 244.274,235.732 245.843,236.523 246.252 C 238.031 247.032,262.688 246.477,263.379 245.647 C 263.446 245.566,263.835 245.474,264.242 245.443 C 265.782 245.327,270.659 244.537,270.777 244.385 C 270.845 244.297,271.677 244.097,272.626 243.939 C 275.491 243.464,275.808 243.399,276.449 243.163 C 276.788 243.039,278.000 242.753,279.143 242.528 C 280.286 242.304,281.396 242.021,281.610 241.900 C 281.823 241.780,282.719 241.511,283.600 241.303 C 285.302 240.901,285.419 240.868,286.190 240.581 C 286.461 240.480,287.016 240.275,287.423 240.125 C 287.830 239.975,288.308 239.652,288.485 239.408 C 288.662 239.164,288.967 238.964,289.163 238.964 C 289.359 238.964,289.519 238.803,289.519 238.607 C 289.519 238.410,289.698 238.149,289.916 238.027 C 291.069 237.382,291.241 233.724,290.365 228.483 C 290.096 226.873,290.030 226.402,289.660 223.428 C 289.449 221.732,289.211 219.901,289.130 219.359 C 289.050 218.816,288.948 218.129,288.905 217.832 C 288.861 217.534,288.770 217.201,288.703 217.091 C 288.635 216.982,288.501 216.004,288.405 214.920 C 288.308 213.835,288.130 212.392,288.007 211.714 C 287.884 211.036,287.565 208.650,287.296 206.412 C 287.028 204.174,286.735 202.176,286.646 201.973 C 286.232 201.033,286.146 198.670,286.547 199.252 C 286.758 199.557,287.179 200.057,287.485 200.363 C 287.790 200.669,288.039 201.003,288.039 201.104 C 288.039 201.205,288.511 201.853,289.088 202.544 C 289.664 203.235,289.969 203.717,289.766 203.615 C 289.562 203.513,289.645 203.615,289.951 203.841 C 290.256 204.067,290.506 204.381,290.506 204.538 C 290.506 204.695,290.727 204.983,290.999 205.179 C 291.270 205.374,291.492 205.675,291.492 205.848 C 291.492 206.020,291.714 206.300,291.985 206.469 C 292.256 206.638,292.478 206.860,292.478 206.961 C 292.478 207.062,293.089 207.934,293.835 208.900 C 294.581 209.865,295.191 210.729,295.191 210.820 C 295.191 210.911,295.698 211.537,296.317 212.211 C 296.936 212.885,297.829 214.020,298.303 214.733 C 298.776 215.446,299.268 216.030,299.397 216.030 C 299.525 216.030,299.631 216.168,299.632 216.338 C 299.635 216.631,300.913 218.418,301.720 219.256 C 301.927 219.471,302.096 219.749,302.096 219.874 C 302.096 219.998,302.429 220.414,302.836 220.799 C 303.243 221.183,303.576 221.598,303.576 221.721 C 303.576 221.927,304.227 222.773,305.011 223.584 C 305.191 223.769,305.274 223.921,305.196 223.921 C 305.119 223.921,305.250 224.123,305.487 224.369 C 305.724 224.615,306.520 225.593,307.254 226.541 C 308.547 228.210,309.547 228.853,310.847 228.853 C 311.053 228.853,311.221 228.945,311.221 229.058 C 311.221 229.170,311.841 229.287,312.600 229.318 C 313.438 229.352,313.922 229.280,313.832 229.135 C 313.751 229.004,314.126 228.822,314.665 228.731 C 315.204 228.640,315.898 228.371,316.207 228.134 C 316.516 227.896,317.102 227.532,317.509 227.325 C 318.393 226.874,319.012 226.524,320.924 225.392 C 321.717 224.922,322.822 224.285,323.380 223.976 C 323.937 223.667,324.453 223.328,324.527 223.222 C 324.601 223.116,325.382 222.616,326.264 222.111 C 327.145 221.607,328.533 220.703,329.346 220.104 C 330.160 219.504,330.912 219.008,331.018 219.001 C 331.123 218.995,332.066 218.346,333.114 217.560 C 334.161 216.773,335.601 215.696,336.313 215.166 C 337.025 214.636,337.608 214.107,337.608 213.991 C 337.608 213.876,337.709 213.844,337.833 213.920 C 337.957 213.997,338.096 213.974,338.142 213.869 C 338.187 213.764,338.779 213.236,339.457 212.696 C 340.135 212.156,340.837 211.575,341.016 211.406 C 341.195 211.236,341.430 211.097,341.536 211.097 C 341.919 211.097,343.497 208.423,343.666 207.489 C 343.761 206.964,343.871 206.350,343.911 206.124 C 344.097 205.071,342.462 201.032,341.532 200.247 C 341.452 200.179,341.181 199.652,340.929 199.075 C 340.678 198.499,340.383 198.027,340.273 198.027 C 340.164 198.027,340.074 197.905,340.074 197.756 C 340.074 197.495,338.382 194.581,338.084 194.328 C 338.004 194.260,337.781 193.844,337.590 193.403 C 337.398 192.962,337.150 192.602,337.040 192.602 C 336.929 192.602,336.908 192.491,336.991 192.355 C 337.075 192.219,337.040 192.109,336.913 192.109 C 336.785 192.109,336.543 191.776,336.375 191.369 C 336.206 190.962,335.971 190.629,335.852 190.629 C 335.733 190.629,335.657 190.546,335.685 190.444 C 335.743 190.229,334.946 188.765,333.905 187.176 C 333.506 186.566,333.058 185.790,332.910 185.451 C 332.763 185.113,332.372 184.482,332.042 184.050 C 331.712 183.617,331.443 183.090,331.443 182.877 C 331.443 182.665,331.345 182.491,331.226 182.491 C 331.107 182.491,330.866 182.130,330.690 181.689 C 330.514 181.248,330.163 180.685,329.910 180.437 C 329.657 180.190,329.383 179.653,329.301 179.245 C 329.220 178.837,329.016 178.450,328.849 178.386 C 328.682 178.322,328.348 177.832,328.107 177.297 C 327.866 176.763,327.583 176.326,327.479 176.326 C 327.374 176.326,327.160 175.937,327.004 175.462 C 326.847 174.988,326.598 174.599,326.450 174.599 C 326.303 174.599,326.252 174.529,326.339 174.442 C 326.425 174.356,326.279 173.980,326.013 173.607 C 325.456 172.824,325.979 172.662,326.789 173.366 C 327.681 174.142,327.990 174.368,327.990 174.246 C 327.990 174.177,328.517 174.445,329.162 174.841 C 329.806 175.238,330.721 175.758,331.196 175.997 C 331.671 176.237,332.270 176.627,332.528 176.864 C 332.786 177.101,333.074 177.247,333.169 177.189 C 333.263 177.130,333.580 177.305,333.871 177.577 C 334.163 177.849,334.402 178.003,334.402 177.920 C 334.402 177.838,334.576 177.944,334.790 178.157 C 335.003 178.371,335.336 178.545,335.529 178.545 C 335.723 178.545,335.882 178.639,335.882 178.754 C 335.882 178.869,336.353 179.171,336.930 179.426 C 337.506 179.680,338.043 179.979,338.123 180.091 C 338.284 180.317,339.408 180.965,340.999 181.750 C 341.575 182.035,342.047 182.373,342.047 182.502 C 342.047 182.632,342.211 182.737,342.412 182.737 C 342.761 182.737,345.489 184.358,345.746 184.717 C 345.814 184.813,346.147 184.975,346.486 185.078 C 346.825 185.181,347.903 185.797,348.882 186.448 C 349.861 187.099,350.888 187.703,351.163 187.790 C 351.439 187.878,351.665 188.059,351.665 188.194 C 351.665 188.328,351.767 188.375,351.891 188.298 C 352.016 188.221,352.270 188.298,352.455 188.469 C 354.622 190.466,360.365 191.940,361.246 190.726 C 361.334 190.605,361.791 190.291,362.262 190.028 C 363.101 189.559,364.242 188.493,364.242 188.177 C 364.242 188.089,364.796 187.417,365.474 186.684 C 366.152 185.951,366.769 185.151,366.847 184.907 C 366.924 184.663,367.072 184.464,367.176 184.464 C 367.336 184.464,368.436 182.950,369.297 181.544 C 369.433 181.323,369.738 180.995,369.975 180.816 C 370.213 180.637,370.407 180.330,370.407 180.134 C 370.407 179.938,370.497 179.778,370.607 179.778 C 370.717 179.778,371.299 179.029,371.900 178.113 C 372.502 177.198,373.078 176.412,373.180 176.367 C 373.282 176.321,373.366 176.127,373.366 175.935 C 373.366 175.743,373.477 175.586,373.613 175.586 C 373.748 175.586,373.859 175.428,373.859 175.235 C 373.859 175.042,374.113 174.570,374.424 174.187 C 374.734 173.803,375.120 173.184,375.282 172.811 C 375.443 172.438,375.688 172.133,375.827 172.133 C 375.966 172.133,376.079 171.982,376.079 171.797 C 376.079 171.611,376.287 171.195,376.542 170.871 C 377.001 170.288,377.556 169.365,378.452 167.694 C 378.707 167.220,378.976 166.776,379.052 166.708 C 379.378 166.413,380.224 164.523,380.090 164.389 C 380.009 164.308,380.059 164.242,380.201 164.242 C 381.298 164.242,382.593 157.741,381.564 157.398 C 381.394 157.341,381.317 157.193,381.394 157.069 C 381.471 156.945,381.416 156.843,381.272 156.843 C 381.129 156.843,381.011 156.697,381.011 156.518 C 381.011 156.125,379.494 154.377,379.153 154.377 C 379.019 154.377,378.772 154.155,378.602 153.884 C 378.433 153.613,378.156 153.390,377.988 153.390 C 377.820 153.389,377.260 153.001,376.743 152.527 C 376.227 152.052,375.728 151.662,375.634 151.660 C 375.539 151.657,375.020 151.269,374.479 150.797 C 373.938 150.325,373.427 149.938,373.343 149.938 C 373.260 149.938,372.870 149.659,372.477 149.317 C 371.163 148.174,371.027 148.067,370.290 147.603 C 369.887 147.350,369.338 146.939,369.072 146.690 C 368.806 146.442,368.451 146.239,368.285 146.239 C 368.118 146.239,367.945 146.138,367.900 146.013 C 367.797 145.732,364.739 143.280,364.490 143.280 C 364.391 143.280,364.012 142.983,363.648 142.619 C 363.285 142.256,362.777 141.840,362.519 141.694 C 362.261 141.549,361.073 140.682,359.878 139.768 C 358.684 138.854,357.450 137.911,357.136 137.672 C 356.822 137.433,356.376 137.072,356.145 136.868 C 355.915 136.665,355.397 136.285,354.996 136.025 C 354.595 135.764,354.153 135.458,354.014 135.344 C 353.875 135.229,353.329 134.804,352.802 134.399 L 351.843 133.662 352.679 133.671 C 353.138 133.676,354.624 133.853,355.980 134.064 C 357.337 134.276,358.918 134.466,359.494 134.487 C 360.071 134.508,360.543 134.590,360.543 134.669 C 360.543 134.748,360.681 134.819,360.851 134.825 C 362.315 134.884,367.448 135.520,367.448 135.644 C 367.448 135.730,367.901 135.819,368.456 135.840 C 369.011 135.862,369.542 135.928,369.637 135.986 C 369.732 136.045,371.174 136.219,372.842 136.372 C 374.509 136.525,376.114 136.752,376.408 136.876 C 376.702 137.000,378.385 137.272,380.148 137.481 C 381.911 137.689,383.742 137.937,384.217 138.031 C 389.332 139.043,392.925 136.759,393.706 131.998 C 393.801 131.421,393.998 130.949,394.144 130.949 C 394.290 130.949,394.345 130.884,394.265 130.804 C 394.185 130.724,394.261 130.252,394.434 129.756 C 394.607 129.259,394.827 128.245,394.924 127.502 C 395.021 126.758,395.188 126.092,395.296 126.022 C 395.507 125.884,396.265 122.490,397.142 117.756 C 397.444 116.128,397.759 114.630,397.842 114.427 C 397.970 114.116,398.418 110.876,398.918 106.658 C 400.248 95.422,400.256 83.847,398.933 83.847 C 398.796 83.847,398.753 83.779,398.837 83.695 C 399.032 83.500,397.386 81.945,396.424 81.417 C 395.621 80.976,239.863 80.694,238.029 81.130 M152.651 93.632 C 152.651 94.040,152.040 95.438,151.862 95.438 C 151.753 95.438,151.665 95.660,151.665 95.931 C 151.665 96.202,151.554 96.424,151.418 96.424 C 151.282 96.424,151.171 96.624,151.171 96.868 C 151.171 97.112,151.064 97.419,150.933 97.551 C 150.505 97.978,149.465 100.203,149.595 100.413 C 149.664 100.525,149.611 100.617,149.476 100.617 C 149.341 100.617,149.090 101.005,148.918 101.480 C 148.747 101.954,148.522 102.343,148.419 102.343 C 148.315 102.343,148.113 102.782,147.968 103.318 C 147.824 103.855,147.565 104.437,147.394 104.613 C 147.222 104.788,146.923 105.321,146.728 105.795 C 146.534 106.270,146.083 107.193,145.725 107.847 L 145.075 109.036 144.002 106.861 C 143.412 105.664,142.952 104.602,142.981 104.501 C 143.010 104.399,142.945 104.316,142.836 104.316 C 142.728 104.316,142.492 103.900,142.311 103.391 C 142.131 102.882,141.776 102.268,141.522 102.025 C 141.268 101.782,141.060 101.433,141.060 101.248 C 141.060 101.064,140.738 100.300,140.343 99.550 C 139.949 98.800,139.690 98.123,139.768 98.045 C 139.846 97.968,139.774 97.904,139.607 97.904 C 139.441 97.904,139.374 97.792,139.459 97.655 C 139.543 97.519,139.449 97.345,139.251 97.268 C 139.052 97.192,138.820 96.760,138.735 96.309 C 138.651 95.857,138.426 95.359,138.237 95.202 C 138.048 95.044,137.779 94.589,137.640 94.190 L 137.387 93.465 145.019 93.465 C 149.217 93.465,152.651 93.540,152.651 93.632 " stroke="none" fill="#f48c24" fill-rule="evenodd"></path>
    </g>
</svg>      
