<?xml version="1.0" encoding="UTF-8" standalone="no"?> <!-- Created with Inkscape (http://www.inkscape.org/) --> <svg xmlns:inkscape="http://www.inkscape.org/namespaces/inkscape" xmlns:sodipodi="http://sodipodi.sourceforge.net/DTD/sodipodi-0.dtd" xmlns="http://www.w3.org/2000/svg" xmlns:svg="http://www.w3.org/2000/svg" width="72.131134mm" height="31.884796mm" viewBox="0 0 72.131134 31.884796" version="1.1" id="svg5" sodipodi:docname="Zeichnung.svg" inkscape:version="1.1 (c68e22c387, 2021-05-23)"><defs id="defs2"></defs><g inkscape:label="Ebene 1" inkscape:groupmode="layer" id="layer1" transform="translate(-3.5582313,-2.6201041)"><g id="g19" transform="matrix(0.0118209,0,0,0.0118209,24.397277,127.20499)" inkscape:export-filename="C:\Users\Vinzenz Jüttner\g19.svg" inkscape:export-xdpi="300" inkscape:export-ydpi="300"><g id="g37" transform="translate(-1811.8984,-10539.209)"><path id="owl" fill="#f48c24" d="m 688,196 c 0.56,-6.7 3.24,-14.38 7.1,-19.91 0,0 4.83,-6.18 4.83,-6.18 0,0 3.59,-7.91 3.59,-7.91 0,0 7.71,-11 7.71,-11 0,0 4.58,-7.99 4.58,-7.99 2.34,-3.47 4.39,-4.4 6.72,-7.18 0,0 4.72,-6.83 4.72,-6.83 0,0 9.47,-11 9.47,-11 0,0 15.24,-16 15.24,-16 0,0 9.05,-10 9.05,-10 6.44,-6.57 13.89,-12.89 21.16,-18.53 0,0 9.83,-6.37 9.83,-6.37 0,0 17,-13.55 17,-13.55 0,0 13,-6.62 13,-6.62 0,0 10,-7.03 10,-7.03 0,0 11,-4.45 11,-4.45 0,0 9,-5.63 9,-5.63 0,0 27,-11.73 27,-11.73 0,0 25.99,-6.94 25.99,-6.94 4.76,-1.33 4.65,-2.85 9.05,-4.09 8.47,-2.4 47.5,-6.95 56.96,-7.06 35.8,-0.42 79.09,-0.57 114,6.45 0,0 21,6.66 21,6.66 0,0 20,5.84 20,5.84 0,0 10,5.18 10,5.18 0,0 13,5.18 13,5.18 12.32,5.64 34.93,18.16 46,25.72 0,0 15,11.22 15,11.22 0,0 13,8.57 13,8.57 9.08,7.12 23.96,22.45 32.09,31.18 0,0 17.77,19 17.77,19 9.88,11.83 27.01,37.37 34.8,51 0,0 10.03,21.96 10.03,21.96 0,0 4.35,7.13 4.35,7.13 0,0 3.03,7.91 3.03,7.91 0,0 3.44,6 3.44,6 0,0 5.21,18 5.21,18 4.54,15.15 8.41,28.25 10.86,44 0,0 3.59,38 3.59,38 0,0 4.52,26 4.52,26 0.01,2.77 -3.05,9 -3.6,17 0,0 -5.17,55 -5.17,55 -4.13,23.49 -12.55,45.88 -21.11,68 0,0 -4.6,13 -4.6,13 0,0 -12.2,21 -12.2,21 0,0 -7.09,13 -7.09,13 0,0 -15.2,21 -15.2,21 0,0 -8.04,12 -8.04,12 -9.6,11.79 -22.78,24.11 -33.68,35 -5.93,5.93 -14.5,14.02 -21,19.19 0,0 -8.96,6.28 -8.96,6.28 -3.32,2.64 -4.38,5.03 -8.08,7.57 0,0 -6.96,4.05 -6.96,4.05 0,0 -12,7.87 -12,7.87 0,0 -6.96,3.31 -6.96,3.31 -3.68,2.1 -4.35,4.35 -8.08,6.34 0,0 -8.96,3.67 -8.96,3.67 0,0 -21,9.27 -21,9.27 0,0 -13,4.54 -13,4.54 0,0 -10,4.84 -10,4.84 0,0 -28.96,7.77 -28.96,7.77 0,0 -8.08,3.06 -8.08,3.06 -7.4,1.95 -31.32,5.15 -38.96,5.24 0,0 -30,3 -30,3 0,0 -18,0 -18,0 0,0 -41,-3.85 -41,-3.85 0,0 -22,-2.76 -22,-2.76 0,0 -14,-3.93 -14,-3.93 0,0 -6.83,0 -6.83,0 0,0 -7.18,-3.85 -7.18,-3.85 0,0 -12.99,-3.61 -12.99,-3.61 0,0 -19,-7.55 -19,-7.55 0,0 -15,-4.89 -15,-4.89 0,0 -10,-6.24 -10,-6.24 0,0 -12.96,-6.11 -12.96,-6.11 0,0 -7.13,-5.01 -7.13,-5.01 0,0 -12.91,-7.25 -12.91,-7.25 0,0 -18,-12.74 -18,-12.74 0,0 -8,-4.64 -8,-4.64 0,0 -9,-8.2 -9,-8.2 -26.9,-21.88 -49.14,-48.58 -68.33,-77.37 0,0 -14.29,-21 -14.29,-21 0,0 -4.7,-12 -4.7,-12 0,0 -5.28,-9 -5.28,-9 0,0 -5.3,-14 -5.3,-14 0,0 -5.03,-10 -5.03,-10 0,0 -8.1,-27 -8.1,-27 0,0 -6.08,-19 -6.08,-19 0,0 -5.05,-37 -5.05,-37 0,0 -2.93,-35 -2.93,-35 0,0 -0.91,-10 -0.91,-10 -0.16,-13.93 1.02,-9.03 2.74,-19 1.08,-6.2 1.19,-12.72 1.26,-19 0.21,-17.24 5.03,-40.73 10.66,-57 0,0 6.34,-22 6.34,-22 0,0 7.19,-17 7.19,-17 2.16,-5.57 2.6,-11.96 8.81,-14 z m 1500,389 c -7.28,2.14 -14.1,11.48 -20,16.58 -10.85,9.37 -34.73,29.69 -46,36.61 0,0 -15.96,8.88 -15.96,8.88 0,0 -6.21,4.44 -6.21,4.44 0,0 -19.74,8.86 -19.74,8.86 0,0 -8.1,4.75 -8.1,4.75 0,0 -11.99,4.48 -11.99,4.48 0,0 -14,6.34 -14,6.34 0,0 -47,13.06 -47,13.06 0,0 -38,4.17 -38,4.17 0,0 -16,2.53 -16,2.53 0,0 -24,1.3 -24,1.3 0,0 -15,-1.37 -15,-1.37 0,0 -13,-2.46 -13,-2.46 0,0 -20,-1.45 -20,-1.45 -18.82,-2.54 -42.18,-7.95 -60,-14.41 0,0 -15,-6.08 -15,-6.08 0,0 -12,-4.24 -12,-4.24 0,0 -39,-19.34 -39,-19.34 -5,-3.02 -5.49,-5.35 -9.09,-7.76 0,0 -13.91,-8.32 -13.91,-8.32 0,0 -14,-10.74 -14,-10.74 0,0 -7.42,-7.36 -7.42,-7.36 0,0 -13.58,-10.56 -13.58,-10.56 -8.03,-7.47 -18.91,-18.5 -25.85,-26.91 0,0 -5.62,-7.83 -5.62,-7.83 0,0 -7.66,-7.34 -7.66,-7.34 0,0 -3.55,-6.66 -3.55,-6.66 0,0 -9.98,-13.17 -9.98,-13.17 -12.06,-18.44 -31.32,-55.4 -38.65,-76 0,0 -7.12,-27 -7.12,-27 -2.29,-8.08 -4.15,-9.18 -6.12,-19 -2.07,-10.28 -4.43,-36.4 -4.45,-47 0,0 -1,-17 -1,-17 -0.04,-28.83 -0.06,-37.01 3.72,-66 0,0 3.3,-22 3.3,-22 0,0 4.83,-14 4.83,-14 0,0 6.49,-24 6.49,-24 4.32,-12.47 10.64,-24.17 16.4,-36 6.69,-13.71 14.47,-29.43 23.01,-42 10.4,-15.33 25.36,-33.78 38.26,-47 0,0 13.99,-13.04 13.99,-13.04 8.07,-7.72 16.15,-15.44 25,-22.3 7.44,-5.76 9.48,-5.59 12.91,-8.12 0,0 8.1,-6.79 8.1,-6.79 0,0 13.99,-8.53 13.99,-8.53 0,0 8,-6.14 8,-6.14 0,0 29,-12.38 29,-12.38 20.75,-9.36 42.57,-17.79 65,-22.09 30.28,-5.81 61.31,-4.66 92,-4.61 0,0 17,1 17,1 12.09,0.02 40.36,2.72 52,5.43 6.87,1.59 7.14,3.1 12,4.39 8.48,2.25 21.96,5.23 29.83,8.64 0,0 9.17,5.09 9.17,5.09 0,0 13,4.94 13,4.94 0,0 12,6.73 12,6.73 0,0 19,9.38 19,9.38 0,0 16,11.3 16,11.3 0,0 10.72,5.8 10.72,5.8 0,0 7.28,6.79 7.28,6.79 0,0 9,6.79 9,6.79 30.93,25.73 56.71,56.33 77.45,90.72 9.72,16.11 15.7,28.76 23.01,46 0,0 4.83,10 4.83,10 0,0 12.06,41 12.06,41 0,0 4.92,31 4.92,31 1.23,7.95 2.64,9.41 3.35,13 0,0 1.38,22 1.38,22 0,0 0,27 0,27 0,0 -1,20 -1,20 -0.13,10.75 -3.02,11.82 -4.06,19 0,0 0,9 0,9 -3.38,25.64 -13.58,58.19 -23.66,82 0,0 -3.61,8.99 -3.61,8.99 0,0 -6.77,10.02 -6.77,10.02 0,0 -8.91,17.99 -8.91,17.99 -6.77,11.58 -14.89,24.72 -23.42,35 -5.93,7.14 -15.7,16.83 -17.57,26 z M 982,123.14 c 0,0 -23,5.44 -23,5.44 0,0 -30,7.44 -30,7.44 0,0 -10,4.74 -10,4.74 0,0 -13,4.67 -13,4.67 -7.78,3.32 -29.36,15.76 -35.99,20.73 -5.36,4.02 -5.39,5.71 -8.33,8.16 -2.27,1.89 -5.53,3.05 -10.64,7.85 0,0 -16.21,17.83 -16.21,17.83 0,0 -9.62,10 -9.62,10 -4.95,5.83 -16.19,22.95 -19.89,30 -7.9,15.04 -17.22,41.32 -20.9,58 -1.9,8.64 -1.14,13.39 -1.72,15.96 0,0 -3.15,7.13 -3.15,7.13 0,0 -1.55,17.91 -1.55,17.91 0,0 1.22,32 1.22,32 0,0 3.15,10 3.15,10 0,0 1.07,8 1.07,8 0,0 5.28,23 5.28,23 2.11,6.96 3.31,7.21 5.16,12 0,0 3.57,11 3.57,11 2.43,6.02 11.45,23.45 14.99,29 0,0 6.32,9 6.32,9 0,0 3.93,6.91 3.93,6.91 0,0 6.94,7.13 6.94,7.13 0,0 10.54,12.96 10.54,12.96 6.67,7.38 25.6,24.19 33.83,29.66 3.33,2.21 4.42,1.94 6.72,3.28 0,0 13.28,8.75 13.28,8.75 6.09,3.31 12.51,6.44 19,8.89 0,0 9,2.98 9,2.98 5.09,1.97 6.14,4.09 13,6.23 15.49,4.83 32,5.2 48,6.3 0,0 10,0.91 10,0.91 18.2,0.21 50.97,-0.09 68,-4.48 8.62,-2.22 8.75,-4.37 15,-7.05 0,0 21,-7.91 21,-7.91 0,0 11,-6.21 11,-6.21 0,0 7.91,-2.92 7.91,-2.92 0,0 9.09,-7.19 9.09,-7.19 0,0 11,-6.76 11,-6.76 12.39,-9.41 31.01,-29.04 40.65,-41.48 5.62,-7.25 12.52,-16.01 16.91,-24 0,0 3.67,-8 3.67,-8 0,0 5.4,-9 5.4,-9 0,0 8.42,-22 8.42,-22 0,0 5.47,-15 5.47,-15 0,0 3.77,-24 3.77,-24 0,0 3.32,-11 3.32,-11 0,0 1.39,-18 1.39,-18 0.11,-9.57 0.23,-19.54 -1.21,-29 0,0 -3.38,-13 -3.38,-13 -1.84,-10.87 -4.17,-24.71 -7.95,-35 0,0 -5.33,-11 -5.33,-11 0,0 -3.24,-11 -3.24,-11 0,0 -6.1,-10 -6.1,-10 0,0 -7.14,-14 -7.14,-14 0,0 -14.11,-20 -14.11,-20 -14.31,-17.72 -34.27,-35.74 -53.54,-47.95 0,0 -13,-7.26 -13,-7.26 0,0 -10,-7.26 -10,-7.26 0,0 -13,-4.98 -13,-4.98 0,0 -15,-6.52 -15,-6.52 -12.65,-4.02 -25.94,-5.44 -39,-7.22 0,0 -12,-3.7 -12,-3.7 0,0 -7,0 -7,0 0,0 -27,-0.97 -27,-0.97 0,0 -5,0 -5,0 z m 922,1.01 c 0,0 -18,4.43 -18,4.43 -21.9,4.83 -33.08,6.45 -54,16.68 0,0 -11,6.41 -11,6.41 0,0 -22,13.05 -22,13.05 -33.12,23.28 -60.69,59.13 -76.57,96.28 0,0 -5.97,17 -5.97,17 0,0 -4.98,14 -4.98,14 -2.62,10.23 -5.46,42.06 -5.48,53 0,0 0,18 0,18 0.01,7.77 3.62,31.29 5.5,39 1.42,5.82 3.27,6.37 4.82,11.04 7.71,23.18 10.86,31.83 24,52.96 0,0 6.38,11.91 6.38,11.91 0,0 6.09,6.18 6.09,6.18 0,0 5.42,6.91 5.42,6.91 0,0 11.79,12 11.79,12 5.85,5.85 19.82,19.34 26,23.96 5.8,4.33 7.27,3.33 10.72,5.75 0,0 4.37,3.67 4.37,3.67 0,0 18.08,11.07 18.08,11.07 0,0 11.83,4.02 11.83,4.02 0,0 7,3.61 7,3.61 0,0 7,1.72 7,1.72 0,0 7,2.76 7,2.76 11.8,3.65 38.71,8.29 51,8.44 0,0 36,0 36,0 11.43,-0.02 8.03,-1.66 15,-2.79 18.37,-2.98 36.88,-7.48 54,-15.07 0,0 14,-7.87 14,-7.87 0,0 10,-4.59 10,-4.59 16.87,-9 41.4,-33.19 54.15,-47.68 6.9,-7.84 15.46,-17.99 20.62,-27 0,0 4.76,-10 4.76,-10 0,0 6.95,-11 6.95,-11 0,0 5.98,-16.96 5.98,-16.96 0,0 4.52,-9.05 4.52,-9.05 0,0 5.45,-20.99 5.45,-20.99 2.51,-8.82 4.52,-11.27 4.57,-21 0,0 1,-17 1,-17 0,0 0,-19 0,-19 -0.03,-7.09 -1.74,-19.79 -2.92,-27 -1.7,-10.36 -4.13,-24.17 -7.44,-34 0,0 -6.77,-15 -6.77,-15 0,0 -5.14,-13 -5.14,-13 0,0 -8.28,-14 -8.28,-14 0,0 -4.48,-8.72 -4.48,-8.72 0,0 -5.54,-7.28 -5.54,-7.28 -16.06,-22.21 -35.51,-42.93 -58.43,-58.25 0,0 -12,-6.21 -12,-6.21 0,0 -12,-7.27 -12,-7.27 -15.27,-7.65 -47.14,-18.17 -64,-20.83 0,0 -20,-1.53 -20,-1.53 0,0 -12,-0.76 -12,-0.76 0,0 -27,0 -27,0 z M 227,1944 c 1.44,-4.78 -1.47,-6.48 -3.68,-11 0,0 -7.53,-13 -7.53,-13 0,0 -6.93,-15 -6.93,-15 0,0 -13.89,-27 -13.89,-27 0,0 -6.79,-14.99 -6.79,-14.99 0,0 -6,-9.05 -6,-9.05 0,0 -5.49,-12.96 -5.49,-12.96 0,0 -14.83,-32 -14.83,-32 0,0 -6.73,-16 -6.73,-16 -2.44,-5.38 -4.79,-7.24 -6.05,-10 0,0 -2.41,-8 -2.41,-8 0,0 -10.24,-22 -10.24,-22 0,0 -6.87,-18 -6.87,-18 0,0 -6.14,-13 -6.14,-13 0,0 -5.98,-19.91 -5.98,-19.91 -1.24,-2.92 -3.06,-3.68 -4.59,-7.13 0,0 -5.19,-15.96 -5.19,-15.96 0,0 -5.79,-14 -5.79,-14 0,0 -4.87,-16 -4.87,-16 0,0 -6,-14 -6,-14 0,0 -6.44,-23 -6.44,-23 0,0 -4.84,-13 -4.84,-13 0,0 -7.6,-30 -7.6,-30 0,0 -4.24,-14 -4.24,-14 -7.61,-28.86 -15.63,-70.4 -16.92,-100 0,0 -1,-13 -1,-13 0,0 0,-14 0,-14 0,0 -0.96,-12 -0.96,-12 0,0 0,-51 0,-51 0,0 0.96,-12 0.96,-12 0,0 0,-16 0,-16 0,0 1.04,-14 1.04,-14 0.12,-10.38 2.19,-34.24 4.67,-44 0,0 5.58,-15 5.58,-15 0,0 6.23,-28 6.23,-28 0,0 4.89,-10 4.89,-10 0,0 6.25,-19 6.25,-19 0,0 5.92,-11.01 5.92,-11.01 0,0 4.77,-13.99 4.77,-13.99 0,0 7.37,-13 7.37,-13 0,0 5.67,-12.91 5.67,-12.91 0,0 5.24,-7.13 5.24,-7.13 0,0 4.49,-10.96 4.49,-10.96 0,0 12.5,-17 12.5,-17 0,0 10.91,-18 10.91,-18 0,0 12.98,-15 12.98,-15 0,0 7.01,-11 7.01,-11 0,0 11.09,-12 11.09,-12 0,0 19.6,-23 19.6,-23 0,0 11.79,-12 11.79,-12 0,0 9.05,-10 9.05,-10 0,0 19.99,-19.04 19.99,-19.04 0,0 49,-44.66 49,-44.66 6.48,-5.45 9.46,-5.77 12.91,-8.69 0,0 7.39,-7.92 7.39,-7.92 0,0 8.7,-5.51 8.7,-5.51 0,0 16,-13.73 16,-13.73 0,0 11,-7.29 11,-7.29 0,0 24,-18.05 24,-18.05 0,0 6.96,-5.78 6.96,-5.78 0,0 8.08,-4.42 8.08,-4.42 0,0 11.96,-9.43 11.96,-9.43 0,0 8,-4.04 8,-4.04 0,0 9,-7.81 9,-7.81 0,0 18,-11.14 18,-11.14 0,0 17,-12.05 17,-12.05 0,0 13,-7.5 13,-7.5 0,0 24,-15.34 24,-15.34 0,0 8.96,-4.81 8.96,-4.81 4.11,-2.52 4.92,-5.15 9.05,-7.8 0,0 7.99,-4.03 7.99,-4.03 14.58,-8.13 12.56,-9.38 30,-11.13 4.12,-0.41 5.45,-0.97 10,-0.79 5.65,0.22 22.26,1.74 26.96,3.81 3.31,1.46 4.36,3.34 7.13,5.31 2.9,2.06 5.87,2.86 8.7,5.37 0,0 5.32,6.3 5.32,6.3 11.21,12.92 15.08,26.26 14.89,43.17 -0.16,13.62 -6.11,30.79 -15.18,41 -3.09,3.47 -13.17,11.42 -17.24,14.32 0,0 -21.29,14.21 -21.29,14.21 -1.4,1.37 -1.45,1.86 -2.29,3.47 -9.47,1.77 -16.16,6.9 -24,11.91 0,0 -11.99,7.18 -11.99,7.18 0,0 -9.05,7.47 -9.05,7.47 0,0 -15.96,11.06 -15.96,11.06 -4.19,2.95 -6.29,2.75 -9.99,4.91 -4.13,2.42 -5.25,4.8 -8.1,6.75 -2.67,1.83 -4.61,1.72 -7.91,4.15 0,0 -10,8.42 -10,8.42 0,0 -48,34.38 -48,34.38 0,0 -18,14.21 -18,14.21 0,0 -7,6.17 -7,6.17 0,0 -8.49,4.95 -8.49,4.95 0,0 -4.69,5.05 -4.69,5.05 0,0 -7.82,5.6 -7.82,5.6 0,0 -26,23.64 -26,23.64 0,0 -14.46,11.75 -14.46,11.75 0,0 -3.84,5.24 -3.84,5.24 0,0 -15.61,15.16 -15.61,15.16 0,0 -17.26,20 -17.26,20 0,0 -32.94,39 -32.94,39 0,0 -26.6,40 -26.6,40 -3.85,6.76 -5.19,12.03 -6.25,13.91 0,0 -4.59,6.18 -4.59,6.18 0,0 -4.33,12.91 -4.33,12.91 0,0 -5.58,10 -5.58,10 0,0 -4.61,14 -4.61,14 0,0 -4.6,10 -4.6,10 0,0 -2.33,11 -2.33,11 0,0 -3.74,17 -3.74,17 0,0 -2.48,17 -2.48,17 -1.49,8.56 -2.59,0.83 -2.78,17 -0.11,8.43 -1.66,7.88 -2.68,14 0,0 -1.32,19 -1.32,19 0,0 0,28 0,28 0,0 1.49,16 1.49,16 0,0 2.1,6 2.1,6 0,0 1.41,11 1.41,11 0,0 0,8 0,8 0,0 6.8,45 6.8,45 0,0 4.57,14 4.57,14 0,0 8.54,43 8.54,43 0,0 3.75,10 3.75,10 0,0 7.44,23 7.44,23 0,0 1.65,8 1.65,8 0,0 3.56,9 3.56,9 0,0 4.39,14 4.39,14 0,0 5.86,13 5.86,13 0,0 6.86,21 6.86,21 0,0 7.48,17 7.48,17 0,0 4.7,15 4.7,15 0,0 11.54,26 11.54,26 0,0 19.17,44 19.17,44 0,0 7.38,15 7.38,15 0,0 5.71,14 5.71,14 0,0 4.7,8 4.7,8 0,0 4.21,10 4.21,10 0,0 11.95,25 11.95,25 0,0 8.34,14 8.34,14 0,0 4.84,12 4.84,12 0,0 5.74,10 5.74,10 0,0 5.45,12 5.45,12 0,0 17.06,30 17.06,30 0,0 21.62,42 21.62,42 0,0 8.15,15 8.15,15 0,0 5.75,9 5.75,9 0,0 10.21,20 10.21,20 0,0 37.01,65 37.01,65 0,0 8.6,13 8.6,13 0,0 3.5,9 3.5,9 0,0 7.59,11 7.59,11 0,0 7.15,13.91 7.15,13.91 0,0 5.32,7.13 5.32,7.13 0,0 12.66,22.96 12.66,22.96 0,0 3.74,8 3.74,8 0,0 9.57,13 9.57,13 0,0 12.91,23 12.91,23 0,0 6.53,9 6.53,9 0,0 -2,2 -2,2 6.75,4.95 10.22,11.86 14.28,19 0,0 7.96,14 7.96,14 0,0 4.86,7 4.86,7 0,0 2.9,6 2.9,6 0,0 5.93,8 5.93,8 0,0 6.5,13 6.5,13 0,0 15.15,24 15.15,24 0,0 6.63,11.91 6.63,11.91 0,0 5.58,7.13 5.58,7.13 0,0 5.52,10.96 5.52,10.96 0,0 12.36,22 12.36,22 1.76,3.82 4.4,6.88 5.47,11 1.29,4.95 0.92,19.19 0.86,25 -0.13,10.76 -2.35,9.85 -5.45,18 -5.11,13.46 -7.25,23.97 -24.55,24 0,0 -65,0 -65,0 -12.87,-0.03 -15.26,-7.45 -21.78,-16.83 0,0 -8.76,-12.21 -8.76,-12.21 0,0 -16.86,-27.96 -16.86,-27.96 -3.27,-5.42 -7.21,-15.15 -12.6,-18 -0.88,-7.84 -9,-16.96 -13.14,-24 0,0 -8.98,-17 -8.98,-17 0,0 -23.46,-36 -23.46,-36 0,0 -7.37,-14 -7.37,-14 0,0 -10.04,-16 -10.04,-16 0,0 -13.29,-24 -13.29,-24 0,0 -13.3,-21 -13.3,-21 0,0 -6.15,-11 -6.15,-11 0,0 -3.34,-6.96 -3.34,-6.96 0,0 -4.97,-6.21 -4.97,-6.21 0,0 -4.93,-9.83 -4.93,-9.83 0,0 -8.74,-13.09 -8.74,-13.09 0,0 -2.55,-5.91 -2.55,-5.91 0,0 -4.95,-8 -4.95,-8 0,0 -6.66,-12.99 -6.66,-12.99 0,0 -6.34,-9.05 -6.34,-9.05 0,0 -7.12,-14.87 -7.12,-14.87 0,0 -5.41,-8.1 -5.41,-8.1 0,0 -5.79,-11.98 -5.79,-11.98 0,0 -6.68,-9.05 -6.68,-9.05 0,0 -8.05,-15.96 -8.05,-15.96 0,0 -11.04,-20 -11.04,-20 0,0 -7.62,-14 -7.62,-14 -1.42,-2.35 -3.92,-5.4 -4.28,-8 -0.62,-1.95 -0.19,-3.16 0,-5 -5.58,-3.06 -5.38,-6.71 -8.31,-12 0,0 -7.09,-11 -7.09,-11 -3.61,-6.9 -2.57,-10.2 -9.4,-16 z M 1706,849 c 0,0 -3.24,11 -3.24,11 0,0 -2.78,12 -2.78,12 -5.3,17.12 -14.23,32.79 -21.67,49 0,0 -8.19,19 -8.19,19 0,0 -5.24,8 -5.24,8 0,0 -10.62,21 -10.62,21 0,0 -6.1,15 -6.1,15 0,0 -4.29,7 -4.29,7 0,0 -7.56,14 -7.56,14 0,0 -15.06,30 -15.06,30 0,0 -33.51,66 -33.51,66 0,0 -10.08,18 -10.08,18 0,0 -5.97,14 -5.97,14 0,0 -15.94,33 -15.94,33 0,0 -12.48,23 -12.48,23 0,0 -6.54,14.96 -6.54,14.96 0,0 -5.6,9.05 -5.6,9.05 -5.82,11.69 -10.14,24.75 -18.65,34.95 -3.14,3.77 -6.62,5.25 -10.48,8.07 -9.17,6.67 -6.99,5.12 -17,8.61 -12.5,4.36 -12.91,3.51 -26,3.36 -18.19,-0.22 -33.32,-9.99 -44.33,-24 -6.16,-7.84 -14.24,-23.71 -18.92,-33 0,0 -22,-44 -22,-44 0,0 -22.01,-44 -22.01,-44 0,0 -6.64,-11 -6.64,-11 0,0 -4.77,-12.96 -4.77,-12.96 0,0 -5.78,-8.08 -5.78,-8.08 0,0 -7.8,-17.96 -7.8,-17.96 0,0 -9.06,-18 -9.06,-18 0,0 -5.6,-9 -5.6,-9 0,0 -3.52,-9 -3.52,-9 0,0 -7.84,-17 -7.84,-17 0,0 -10.69,-18.28 -10.69,-18.28 0,0 -4.35,-10.72 -4.35,-10.72 0,0 -9.79,-18 -9.79,-18 0,0 -4.81,-11.99 -4.81,-11.99 0,0 -5.31,-8.1 -5.31,-8.1 0,0 -12.04,-26.91 -12.04,-26.91 0,0 -10.85,-19 -10.85,-19 -1.53,-3.27 -1.3,-5.81 -4.69,-12 -3.63,-6.64 -6.63,-7.39 -9.45,-16 -3.2,-9.74 -2.86,-19.9 -2.75,-30 0.17,-14.19 3.44,-23.03 10.55,-35 1.51,-2.55 2.79,-5.52 4.84,-7.67 3.23,-3.4 7.83,-4.79 11.56,-7.43 0,0 6.31,-5.59 6.31,-5.59 3.95,-2.3 15.01,-3.3 19.74,-3.31 0,0 94,0 94,0 0,0 15,-1 15,-1 0,0 30,0 30,0 0,0 15,1 15,1 0,0 222,0 222,0 2.61,0 5.48,-0.11 8,0.65 5.62,1.68 18.76,11.08 22.91,15.39 0,0 5.6,6.96 5.6,6.96 2.85,3.63 5.18,5.54 6.93,10 3.39,8.61 3.36,19.25 4.45,21.96 0.86,2.14 1.54,2.55 3.11,4.04 z m 2117,63 c 0,0 -581,0 -581,0 0,0 -377,0 -377,0 0,0 -378,0 -378,0 0,0 -17,-1 -17,-1 0,0 -95,0 -95,0 -2.67,0 -5.4,0.1 -8,-0.63 -11.42,-3.25 -26.17,-18.08 -31.68,-28.37 -2.17,-4.06 -2.38,-5.98 -3.79,-10 -2.86,-8.13 -4.48,-5.36 -4.53,-16 0,0 0,-7 0,-7 0.11,-9.1 1.27,-10.06 4.19,-18 0,0 2.69,-8 2.69,-8 2.47,-5.76 9.4,-15.7 14.16,-19.61 0,0 7.96,-5.13 7.96,-5.13 3.87,-2.56 6.45,-4.63 11,-6.16 4.96,-1.66 8.1,-0.8 13,-1.27 0,0 33,-0.83 33,-0.83 0,0 71,0 71,0 0,0 15,-1 15,-1 0,0 482,0 482,0 0,0 178,0 178,0 0,0 89,0 89,0 0,0 15,1 15,1 0,0 289,0 289,0 0,0 17,1 17,1 0,0 180,0 180,0 0,0 15,1 15,1 0,0 89,0 89,0 0,0 15,1 15,1 0,0 37,0 37,0 4.04,0.01 8.14,0.04 12,1.42 8.38,2.98 18.32,13.25 23.16,20.49 2.09,3.12 4,4.45 5.44,8.1 3.27,8.31 4.3,24.88 4.4,33.99 0,0 1,15 1,15 0,0 0,35 0,35 0,0 -0.96,12 -0.96,12 0,0 0,15 0,15 0,0 -1.04,14 -1.04,14 0,0 0,5 0,5 0,0 -0.91,10 -0.91,10 0,0 -3.92,49 -3.92,49 0,0 -11.59,95 -11.59,95 0,0 -5.32,25 -5.32,25 0,0 -14.68,74 -14.68,74 0,0 -5.04,20 -5.04,20 -2.09,6.49 -2.79,5.39 -4.54,14 0,0 -3.42,19 -3.42,19 0,0 -3.06,11 -3.06,11 0,0 -0.81,5.83 -0.81,5.83 -0.9,3.41 -2.88,3.73 -4.54,9.17 -2.65,8.72 -2.25,13.2 -6.62,24 -7.06,17.43 -20.63,30.58 -38.55,36.48 -12.87,4.24 -21.78,3.67 -35,3.52 0,0 -28,-3.87 -28,-3.87 0,0 -43,-5.55 -43,-5.55 0,0 -27,-5.31 -27,-5.31 0,0 -49,-5.55 -49,-5.55 0,0 -14,-2.42 -14,-2.42 0,0 -11,-0.89 -11,-0.89 0,0 -10,-2.45 -10,-2.45 0,0 -18,-2.69 -18,-2.69 0,0 -41,-4.4 -41,-4.4 0,0 -9,-2.65 -9,-2.65 0,0 -15,-1.39 -15,-1.39 0,0 -31,-4.25 -31,-4.25 -8.82,-1.31 -22.62,-3.96 -31,-1.58 6.77,2.89 17.26,12.54 24,17.28 0,0 64,48.35 64,48.35 0,0 18,12.88 18,12.88 0,0 13,10.89 13,10.89 0,0 17,12.02 17,12.02 0,0 20,17.07 20,17.07 0,0 9,5.05 9,5.05 0,0 9,7.03 9,7.03 0,0 14,9.88 14,9.88 0,0 15,12.51 15,12.51 0,0 10,6.72 10,6.72 0,0 12,9.81 12,9.81 0,0 10,6.8 10,6.8 0,0 11,9.2 11,9.2 0,0 9.91,6.19 9.91,6.19 0,0 6.18,5.94 6.18,5.94 0,0 7.87,5.71 7.87,5.71 6.29,5.43 9.45,11.68 13.62,18.5 4.43,7.24 7.3,9.24 7.67,18.17 0.43,10.25 -1.34,22.07 -3.88,32 -2.23,8.7 -4.62,22.11 -14.37,25 0.75,9.14 -6.7,19.59 -11.46,27 0,0 -12.96,23 -12.96,23 0,0 -11.03,17 -11.03,17 0,0 -3.82,7.74 -3.82,7.74 0,0 -5.63,6.31 -5.63,6.31 0,0 -5.56,9.95 -5.56,9.95 0,0 -6.83,10 -6.83,10 0,0 -3.34,6.83 -3.34,6.83 0,0 -3.5,5.26 -3.5,5.26 0,0 -2.57,4.91 -2.57,4.91 0,0 -6.14,8 -6.14,8 0,0 -11.04,16 -11.04,16 0,0 -8.55,10.42 -8.55,10.42 -1.98,2.69 -1.67,4.49 -4,7.49 -2.12,2.74 -4.03,3.45 -8.14,9.09 0,0 -13.59,20 -13.59,20 0,0 -9.23,11 -9.23,11 0,0 -5.37,8 -5.37,8 0,0 -10.17,12 -10.17,12 0,0 -8.55,10 -8.55,10 -2.93,3.84 -4.2,6.99 -7.82,10.71 -6.09,6.27 -11.67,9.18 -18.7,13.73 -3.5,2.26 -7.1,5.88 -11,6.99 -2.84,0.81 -11.62,0.61 -15,0.57 -13.97,-0.17 -36.54,-7.87 -49,-14.26 0,0 -19,-12 -19,-12 -1.95,-0.81 -3,-0.69 -5,-0.74 -4.59,-5.42 -11.9,-8.33 -18,-12 0,0 -26,-16.14 -26,-16.14 0,0 -15,-7.46 -15,-7.46 0,0 -19,-12.54 -19,-12.54 0,0 -14.72,-7.22 -14.72,-7.22 -3.18,-1.83 -4.39,-4.33 -10.28,-7.76 0,0 -22,-11.74 -22,-11.74 0,0 -13,-8.68 -13,-8.68 0,0 -11.99,-6.14 -11.99,-6.14 0,0 -7.18,-5.2 -7.18,-5.2 0,0 -5.83,-2.75 -5.83,-2.75 0,0 -15,-9.65 -15,-9.65 0,0 -8,-3.41 -8,-3.41 0,0 -15,-9.88 -15,-9.88 0,0 -25,-14.11 -25,-14.11 0,0 -8,-3.71 -8,-3.71 -6.58,-3.87 -10.25,-9.69 -18,-11.61 0,0 5.94,13.72 5.94,13.72 0,0 3.7,5.32 3.7,5.32 0,0 3.77,7.96 3.77,7.96 0,0 5.63,8 5.63,8 0,0 6.06,11 6.06,11 0,0 6.82,9 6.82,9 0,0 5.03,12 5.03,12 0,0 6.3,9 6.3,9 0,0 6.1,10.99 6.1,10.99 0,0 4.53,6.29 4.53,6.29 0,0 3.88,8.72 3.88,8.72 0,0 7.79,12 7.79,12 0,0 9.46,17 9.46,17 0,0 13.57,22 13.57,22 0,0 5.52,10 5.52,10 0,0 2.31,5.83 2.31,5.83 0,0 11.24,16.74 11.24,16.74 0,0 10.81,19.43 10.81,19.43 0,0 12.68,20 12.68,20 0,0 8.76,16.72 8.76,16.72 0,0 4.75,6.29 4.75,6.29 0,0 6.69,12.99 6.69,12.99 0,0 8.2,12 8.2,12 4.33,7.12 9.82,20 12.6,28 1.74,5 4.52,14.84 4.52,20 0,14.47 -9.54,36.25 -18.98,46.96 0,0 -17.68,14.24 -17.68,14.24 0,0 -13.99,11.67 -13.99,11.67 -4.09,3.59 -5.36,6.31 -11.01,5.13 -4.06,8.57 -20.04,18.4 -28,24.37 0,0 -25,18.61 -25,18.61 0,0 -19,12.05 -19,12.05 0,0 -30,20.37 -30,20.37 0,0 -21,12.69 -21,12.69 0,0 -13,9.1 -13,9.1 0,0 -59,33.67 -59,33.67 0,0 -18,10.81 -18,10.81 0,0 -13.99,4.46 -13.99,4.46 -5.91,2.44 -4.62,4.65 -13.01,4.86 -3.99,0.09 -12.35,-0.61 -16,-1.86 0,0 -6,-2.59 -6,-2.59 -4.07,-1.21 -10.28,-0.14 -19,-6.33 -8.47,-6 -27.25,-29.17 -33.79,-38.21 0,0 -3.75,-6 -3.75,-6 0,0 -5.17,-6 -5.17,-6 -2.25,-2.6 -5.9,-7.14 -7.7,-10 -1.98,-3.14 -2.52,-4.8 -5.07,-8 0,0 -8.13,-9 -8.13,-9 0,0 -5.77,-9 -5.77,-9 0,0 -12.19,-15 -12.19,-15 0,0 -10.06,-15.83 -10.06,-15.83 0,0 -8.13,-9.17 -8.13,-9.17 0,0 -16.49,-22 -16.49,-22 0,0 -15.24,-18 -15.24,-18 0,0 -7.23,-11 -7.23,-11 0,0 -13.55,-18 -13.55,-18 0,0 -8.34,-12 -8.34,-12 0,0 -7.7,-8.17 -7.7,-8.17 0,0 -4.1,-6.79 -4.1,-6.79 0,0 -4.96,-5.32 -4.96,-5.32 0,0 -4.26,-6.68 -4.26,-6.68 0,0 -4.74,-5.32 -4.74,-5.32 0,0 -3.84,-6.72 -3.84,-6.72 0,0 -7.89,-10 -7.89,-10 0,0 -6.65,-10 -6.65,-10 -4.24,-6.08 -9.59,-10.17 -13.25,-17 -4.14,9.98 0.88,20.08 2.74,30 0,0 7.98,59 7.98,59 0,0 6.13,44 6.13,44 0,0 3.58,32 3.58,32 0,0 4.15,20 4.15,20 0,0 9.57,73 9.57,73 2.5,20.8 8.61,46.66 8.85,67 0.14,12.58 1.3,36.08 -3.92,47 -0.69,1.45 -10.38,14.32 -11.38,15.08 0,0 -5.7,3.34 -5.7,3.34 -3.39,2.52 -4.84,4.86 -9,7.17 0,0 -12,4.83 -12,4.83 0,0 -37,10.46 -37,10.46 0,0 -20,6.39 -20,6.39 0,0 -31,6.86 -31,6.86 0,0 -20,5.42 -20,5.42 0,0 -36,6.45 -36,6.45 0,0 -16,4.4 -16,4.4 0,0 -51,7.88 -51,7.88 0,0 -10,1.25 -10,1.25 -10.46,2.38 -9.07,4.45 -23,4.47 0,0 -242,0 -242,0 -2.17,0 -4.95,0.11 -7,-0.56 -5.75,-1.87 -14.38,-12.06 -16.95,-17.44 0,0 -2.51,-7 -2.51,-7 -4.41,-11.48 -7.32,-25.8 -4.19,-38 0,0 3.84,-10 3.84,-10 4.36,-11.21 8.19,-17.71 17.81,-25.53 3.27,-2.66 19.39,-11.91 23,-12.9 4.8,-1.32 14.91,-1.31 20,-1.66 0,0 24,-0.91 24,-0.91 0,0 16,-1 16,-1 0,0 42,-1 42,-1 0,0 22,-1 22,-1 0,0 38,-4.72 38,-4.72 0,0 18,-1.45 18,-1.45 0,0 51,-6.1 51,-6.1 11.61,-1.71 14.63,-3.96 18,-4.51 0,0 18,-1.64 18,-1.64 0,0 38,-6.24 38,-6.24 0,0 16,-4.46 16,-4.46 0,0 22,-4.76 22,-4.76 0,0 22,-6.4 22,-6.4 5.28,-1.57 13.92,-2.03 16.26,-7.81 1.53,-3.79 -0.5,-8.24 -1.52,-11.91 -1.53,-5.57 -2.75,-13.21 -3.46,-19 0,0 -6.41,-58 -6.41,-58 0,0 -5.59,-30 -5.59,-30 0,0 -3.43,-31 -3.43,-31 0,0 -2.87,-18 -2.87,-18 0,0 0,-11 0,-11 0,0 -4.71,-18 -4.71,-18 0,0 -7.55,-63 -7.55,-63 0,0 -4.44,-23 -4.44,-23 0,0 -5.55,-46 -5.55,-46 0,0 -3.44,-16 -3.44,-16 0,0 -2.45,-24 -2.45,-24 0,0 -5.12,-41 -5.12,-41 0,0 -5,-30 -5,-30 0,0 -4.56,-35 -4.56,-35 0,0 -2.58,-26 -2.58,-26 0,0 -1.48,-9 -1.48,-9 -1.52,-6.06 -4.3,-10.1 -3.78,-17 0.52,-6.8 6.19,-26.04 9.23,-32 1.58,-3.1 4.13,-6.21 6.22,-9 1.99,-2.67 3.93,-6.11 6.44,-8.21 2.21,-1.85 6.14,-3.71 8.79,-5.04 11.14,-5.58 17.34,-7.73 30,-7.75 0,0 14,0 14,0 4.74,0.06 12.81,1 16.87,3.41 0,0 6.26,4.81 6.26,4.81 5.52,2.9 9.96,4.14 14.66,8.96 0,0 14.09,19.82 14.09,19.82 0,0 18.54,25 18.54,25 0,0 14.54,18 14.54,18 0,0 8.06,12 8.06,12 0,0 10.08,12 10.08,12 0,0 17.79,25 17.79,25 0,0 8.64,10 8.64,10 0,0 6.98,10 6.98,10 0,0 12.61,16 12.61,16 0,0 11.68,17.72 11.68,17.72 0,0 8.3,9.28 8.3,9.28 0,0 28.13,38 28.13,38 0,0 36.42,46 36.42,46 0,0 7.59,12 7.59,12 0,0 22.39,29 22.39,29 0,0 10.61,15 10.61,15 0,0 14.32,18 14.32,18 0,0 5.13,9 5.13,9 0,0 21.05,25 21.05,25 0,0 6.54,10 6.54,10 0,0 13.82,17 13.82,17 0,0 7,11 7,11 5.24,7.83 13.75,12.04 14.9,22 9.17,-1.74 29.16,-16.35 38,-21.95 0,0 17,-10.19 17,-10.19 0,0 9,-4.96 9,-4.96 0,0 9,-7.2 9,-7.2 3.88,-2.56 6.96,-2.28 9.74,-4.42 2.38,-1.83 2.87,-4.11 7.28,-7.52 0,0 12.98,-8.78 12.98,-8.78 0,0 21,-14.84 21,-14.84 5.39,-3.86 15.47,-11.78 21,-14.14 -3.46,-12.15 -12.39,-22.04 -18.22,-33 0,0 -7.12,-14 -7.12,-14 0,0 -8.24,-13 -8.24,-13 0,0 -8.48,-15 -8.48,-15 0,0 -7.12,-10 -7.12,-10 0,0 -8.13,-17 -8.13,-17 0,0 -10.37,-16 -10.37,-16 0,0 -19.75,-34 -19.75,-34 -2.86,-5 -7.11,-9.09 -6.57,-15 -5.86,-3.37 -13.32,-18.6 -17,-25 0,0 -34.31,-58 -34.31,-58 0,0 -23.24,-40 -23.24,-40 0,0 -4.33,-8.91 -4.33,-8.91 0,0 -6.79,-9.09 -6.79,-9.09 0,0 -34.34,-60 -34.34,-60 0,0 -11.54,-18 -11.54,-18 0,0 -14.31,-26 -14.31,-26 0,0 -7.27,-12 -7.27,-12 0,0 -5.08,-9.83 -5.08,-9.83 0,0 -4.83,-6.21 -4.83,-6.21 -2.31,-3.47 -12.86,-23.49 -13.8,-26.96 -2.86,-10.48 -2.28,-22.18 -2.16,-33 0.09,-7.5 0.66,-19.41 9,-22 0.15,-2.68 0.2,-4.51 1.45,-7 3.93,-7.75 19.51,-14.55 27.55,-17.58 12.02,-4.52 22.22,-6.44 35,-6.42 13.13,0.02 10.39,3.06 21,8.22 0,0 10,4.74 10,4.74 0,0 8,5.69 8,5.69 0,0 7.91,4.3 7.91,4.3 0,0 7.13,5.57 7.13,5.57 0,0 14.96,7.57 14.96,7.57 0,0 10,6.48 10,6.48 0,0 22,11.85 22,11.85 0,0 16,10.13 16,10.13 0,0 9,4.66 9,4.66 0,0 9,6.44 9,6.44 0,0 10.91,5.47 10.91,5.47 0,0 8.1,5.98 8.1,5.98 0,0 16.99,7.83 16.99,7.83 0,0 40,25.62 40,25.62 0,0 38,21.46 38,21.46 0,0 17,11.09 17,11.09 0,0 7,3.22 7,3.22 0,0 11,6.28 11,6.28 0,0 18,11.93 18,11.93 0,0 14,5.95 14,5.95 0,0 13,9.1 13,9.1 0,0 25,13.85 25,13.85 0,0 13,8.59 13,8.59 0,0 9,4.19 9,4.19 0,0 15,9.78 15,9.78 0,0 27,15.07 27,15.07 0,0 43,25.72 43,25.72 0,0 11.99,7.11 11.99,7.11 3.98,1.18 6.47,-3.22 8.61,-5.89 0,0 10.19,-15 10.19,-15 0,0 8.09,-10 8.09,-10 10.97,-14.17 21.26,-28.76 30.7,-44 0,0 7.48,-13 7.48,-13 0,0 5.99,-9 5.99,-9 0,0 3.02,-5.83 3.02,-5.83 0,0 5.97,-7.18 5.97,-7.18 0,0 6.31,-11.9 6.31,-11.9 0,0 5.3,-7.13 5.3,-7.13 2.99,-4.87 2.76,-7.16 8.35,-9.96 -0.83,-1.67 -0.92,-2.22 -2.29,-3.68 0,0 -17.71,-13.49 -17.71,-13.49 0,0 -5,-2.67 -5,-2.67 0,0 -13,-10.79 -13,-10.79 0,0 -20,-15.19 -20,-15.19 0,0 -9,-6.2 -9,-6.2 0,0 -27,-21.68 -27,-21.68 0,0 -9,-5.65 -9,-5.65 0,0 -35,-27.22 -35,-27.22 0,0 -13,-8.36 -13,-8.36 0,0 -34,-27.83 -34,-27.83 -7.4,-5.6 -8.75,-4.19 -15,-8.92 0,0 -25,-20.15 -25,-20.15 0,0 -7,-4.72 -7,-4.72 0,0 -12,-9.81 -12,-9.81 0,0 -8.96,-6.16 -8.96,-6.16 0,0 -17.04,-14.09 -17.04,-14.09 0,0 -9,-5.9 -9,-5.9 0,0 -12,-9.27 -12,-9.27 0,0 -7.96,-4.71 -7.96,-4.71 0,0 -6.21,-6.1 -6.21,-6.1 0,0 -7.83,-4.82 -7.83,-4.82 0,0 -11,-9.36 -11,-9.36 -7.12,-5.46 -18.14,-11.09 -22,-19.23 -6.69,0.17 -11.11,-5.59 -16,-9.54 0,0 -15,-10 -15,-10 0,0 -14,-12.02 -14,-12.02 -10.86,-9.13 -29.48,-19.96 -38.86,-30.48 -2.93,-3.29 -2.64,-4.48 -4.1,-6.79 0,0 -4.91,-6.21 -4.91,-6.21 -4.73,-8.22 -6.72,-19.6 -7.04,-28.96 -0.46,-6.84 -2.01,-9.62 0,-17 1.04,-3.17 2.16,-4.26 3.49,-7 2.1,-4.31 1.93,-6.38 5.35,-12 3.78,-6.23 5.66,-6.71 10.07,-15 7.32,0.02 10.08,-5.95 16,-9.03 4.54,-2.37 20.59,-4.9 26,-4.97 9.7,-0.11 40.13,3.24 50,5.09 0,0 16,3.48 16,3.48 0,0 58,6.71 58,6.71 0,0 25,4.45 25,4.45 0,0 54,7.11 54,7.11 0,0 18,2.18 18,2.18 0,0 7,0 7,0 0,0 8,2.46 8,2.46 0,0 8,1.25 8,1.25 0,0 59,7.54 59,7.54 0,0 25,4.45 25,4.45 0,0 40,4.71 40,4.71 0,0 12,2.08 12,2.08 5.6,1.4 5.88,2.33 13,3.43 0,0 11,0 11,0 0,0 50,6.33 50,6.33 0,0 26,5.46 26,5.46 19.99,2.94 33.99,3.27 54,3.27 0,0 2.78,-9 2.78,-9 0,0 3.42,-16 3.42,-16 0,0 3.09,-15 3.09,-15 0,0 3.06,-10 3.06,-10 0,0 5.07,-26 5.07,-26 0,0 5.58,-23 5.58,-23 0,0 7.13,-48 7.13,-48 0,0 3.58,-16 3.58,-16 0,0 1.57,-20 1.57,-20 0,0 4.55,-38 4.55,-38 0,0 2.26,-33 2.26,-33 0,0 1.91,-28 1.91,-28 0,0 0.66,-10 0.66,-10 0,0 -0.66,-9 -0.66,-9 z m -2286,2 c 0,0 -34,-1 -34,-1 0,0 -15,-1 -15,-1 0,0 -98,0 -98,0 2.89,12.65 4.96,11.03 9.93,20 0,0 4.42,11.96 4.42,11.96 2.54,5.34 4.59,4.41 5.65,11.04 0,0 3,0 3,0 0.43,7.87 4.32,14.08 7.75,21 0,0 5.67,14 5.67,14 0,0 8.06,12 8.06,12 0,0 5.04,10.96 5.04,10.96 0,0 4.1,6.21 4.1,6.21 0,0 7.24,16.83 7.24,16.83 0,0 13.14,26 13.14,26 7.08,-8.81 12.15,-22.79 17.27,-33 0,0 7.6,-13 7.6,-13 0,0 5.4,-14 5.4,-14 0,0 4.66,-7 4.66,-7 0,0 4.28,-8.99 4.28,-8.99 0,0 3.85,-5.43 3.85,-5.43 0,0 2.41,-7.58 2.41,-7.58 0,0 5.13,-11 5.13,-11 0,0 6.97,-12 6.97,-12 0,0 2.11,-5.96 2.11,-5.96 0,0 3.19,-5.32 3.19,-5.32 0,0 2.09,-5.72 2.09,-5.72 3.65,-7.64 7.12,-8.81 8.04,-19 z M 230,1942 c 0,0 -1,0 -1,0 0,0 1,1 1,1 0,0 0,-1 0,-1 z"></path><path id="text" fill="#000000" d="m 4301,2181 c 0,0 46,0 46,0 0,0 0,194 0,194 0,0 -46,0 -46,0 0,0 0,-13 0,-13 -9.01,6.38 -17.07,12.71 -28,15.52 -7.41,1.91 -14.42,1.57 -22,1.48 -5.42,-0.07 -8.9,-0.88 -14,-2.7 -25.63,-9.16 -36.96,-38.98 -37,-64.3 0,0 0,-14 0,-14 0.3,-25.52 15.9,-52.78 40,-62.55 13,-5.27 18.45,-4.6 32,-4.45 11.61,0.14 18.48,4.35 29,8 0,0 0,-58 0,-58 z m 87,0 c 0,0 45,0 45,0 0,0 0,67 0,67 9.18,-6.12 18.13,-12.73 29,-15.52 7.52,-1.94 15.29,-1.57 23,-1.48 31.77,0.38 48.53,32.75 49,61 0,0 0.92,12 0.92,12 0,0 -0.75,7 -0.75,7 -1.33,13.75 -2.65,22.56 -9.48,35 -8.3,15.12 -22.62,27.29 -39.69,30.99 -6.68,1.44 -15.07,1.09 -22,1.01 -10.53,-0.13 -20.93,-3.86 -30,-9 0,0 -1,6 -1,6 0,0 -44,0 -44,0 0,0 0,-194 0,-194 z m 176,0 c 0,0 49,0 49,0 0,0 0,34 0,34 0,0 -49,0 -49,0 0,0 0,-34 0,-34 z m 89,0 c 0,0 45,0 45,0 0,0 0,194 0,194 0,0 -45,0 -45,0 0,0 0,-194 0,-194 z m 178,0 c 0,0 46,0 46,0 0,0 0,194 0,194 0,0 -46,0 -46,0 0,0 0,-13 0,-13 -9.01,6.38 -17.07,12.71 -28,15.52 -7.41,1.91 -14.42,1.57 -22,1.48 -5.42,-0.07 -8.9,-0.88 -14,-2.7 -25.63,-9.16 -36.96,-38.98 -37,-64.3 0,0 0,-14 0,-14 0.3,-25.52 15.9,-52.78 40,-62.55 13,-5.27 18.45,-4.6 32,-4.45 11.61,0.14 18.48,4.35 29,8 0,0 0,-58 0,-58 z m 714,0 c 0,0 49,0 49,0 0,0 0,34 0,34 0,0 -49,0 -49,0 0,0 0,-34 0,-34 z m -2179,9 c 0,0 91,0 91,0 0,0 0,130 0,130 -0.02,14.9 -4.07,30.22 -15.04,40.91 -21.08,20.53 -49,18.4 -75.96,18.09 0,0 -25,-3 -25,-3 0,0 0,-38 0,-38 12.45,0.04 11.91,2.72 22,4.77 3.82,0.45 10.85,0.24 15,0 11.83,0.21 22.98,-3.71 27.44,-15.77 3.53,-9.53 2.56,-26.51 2.56,-37 0,0 0,-66 0,-66 0,0 -42,0 -42,0 0,0 0,-34 0,-34 z m 406,170 c -15.93,12.2 -25.91,13.03 -45,13 -6.5,-0.01 -11.78,-0.76 -18,-2.75 -26.98,-8.62 -37.96,-34.8 -38,-61.25 0,0 0,-15 0,-15 0.26,-22.23 12.27,-44.92 32,-55.69 14.18,-7.74 23.56,-7.49 39,-7.31 10.19,0.12 21.2,4.01 30,9 1.12,-4.88 2.14,-4.91 7,-5 0,0 39,0 39,0 0,0 0,121 0,121 -0.03,21.64 -4.67,46.03 -24,58.9 -16.96,11.29 -36.45,12.1 -56,12.1 -10.85,0 -17.04,0.08 -28,-1.28 0,0 -24,-3.72 -24,-3.72 0,0 0,-37 0,-37 10.27,0.01 7.66,0.45 17,3.14 0,0 11,2.86 11,2.86 17.78,3.68 48.93,5.78 55.78,-16 1.35,-4.28 2.12,-10.5 2.22,-15 z m 223,-29 c 0,0 0,29 0,29 0,2.06 0.26,5.62 -0.99,7.3 -1.92,2.59 -13.54,5.9 -17.01,6.82 -21.87,5.77 -31.85,5.14 -54,4.88 -22.32,-0.26 -48.87,-10.57 -62.22,-29 -9.02,-12.46 -12.44,-28.85 -12.44,-44 0,-32.04 15,-59.99 46.66,-70.64 15.15,-5.1 27.37,-4.54 43,-4.36 13.79,0.17 30.75,5.82 40.99,15.17 19.77,18.08 18.01,42.67 18.01,66.83 0,0 -102,0 -102,0 0.35,4.26 1.03,8.01 2.63,12 8.12,20.23 28.64,22.22 47.37,22 6.46,-0.08 12.92,-1.57 19,-3.69 11.95,-4.17 21.52,-10.78 24,-11.61 2.3,-0.77 4.62,-0.68 7,-0.7 z m 78,-82 c 14.22,-10.07 25.91,-17.97 44,-18 15.85,-0.02 29.43,0.87 40.68,14.01 7.83,9.17 11.26,23.11 11.32,34.99 0,0 0,95 0,95 0,0 -46,0 -46,0 0,0 0,-63 0,-63 0,-8.8 0.19,-26.32 -3.57,-34 -6.22,-12.72 -24.24,-11.84 -35.43,-7.13 -2.88,1.22 -8.39,3.65 -9.98,6.34 -1.22,2.08 -1.02,5.41 -1.02,7.79 0,0 0,90 0,90 0,0 -45,0 -45,0 0,0 0,-140 0,-140 0,0 45,0 45,0 0,0 0,14 0,14 z m 1072,0 c 14.22,-10.07 25.91,-17.97 44,-18 15.85,-0.02 29.43,0.87 40.68,14.01 7.83,9.17 11.26,23.11 11.32,34.99 0,0 0,95 0,95 0,0 -46,0 -46,0 0,0 0,-63 0,-63 0,-8.8 0.19,-26.32 -3.57,-34 -6.22,-12.72 -24.24,-11.84 -35.43,-7.13 -2.88,1.22 -8.39,3.65 -9.98,6.34 -1.22,2.08 -1.02,5.41 -1.02,7.79 0,0 0,90 0,90 0,0 -45,0 -45,0 0,0 0,-140 0,-140 0,0 45,0 45,0 0,0 0,14 0,14 z m 228,111 c -15.93,12.2 -25.91,13.03 -45,13 -6.5,-0.01 -11.78,-0.76 -18,-2.75 -26.98,-8.62 -37.96,-34.8 -38,-61.25 0,0 0,-15 0,-15 0.26,-22.23 12.27,-44.92 32,-55.69 14.18,-7.74 23.56,-7.49 39,-7.31 10.19,0.12 21.2,4.01 30,9 1.12,-4.88 2.14,-4.91 7,-5 0,0 39,0 39,0 0,0 0,121 0,121 -0.03,21.64 -4.67,46.03 -24,58.9 -16.96,11.29 -36.45,12.1 -56,12.1 -10.85,0 -17.04,0.08 -28,-1.28 0,0 -24,-3.72 -24,-3.72 0,0 0,-37 0,-37 10.27,0.01 7.66,0.45 17,3.14 0,0 11,2.86 11,2.86 17.78,3.68 48.93,5.78 55.78,-16 1.35,-4.28 2.12,-10.5 2.22,-15 z m 306,-111 c 14.22,-10.07 25.91,-17.97 44,-18 15.85,-0.02 29.43,0.87 40.68,14.01 7.83,9.17 11.26,23.11 11.32,34.99 0,0 0,95 0,95 0,0 -46,0 -46,0 0,0 0,-63 0,-63 0,-8.8 0.19,-26.32 -3.57,-34 -6.22,-12.72 -24.24,-11.84 -35.43,-7.13 -2.88,1.22 -8.39,3.65 -9.98,6.34 -1.22,2.08 -1.02,5.41 -1.02,7.79 0,0 0,90 0,90 0,0 -45,0 -45,0 0,0 0,-140 0,-140 0,0 45,0 45,0 0,0 0,14 0,14 z m -2181,-14 c 0,0 46,0 46,0 0,0 0,82 0,82 0.11,9.33 2.47,19.61 12,23.52 7.9,3.24 19.28,1.37 27,-1.58 2.6,-1 7.47,-2.96 8.98,-5.33 1.24,-1.95 1.02,-5.34 1.02,-7.61 0,0 0,-91 0,-91 0,0 46,0 46,0 0,0 0,140 0,140 0,0 -46,0 -46,0 0,0 0,-14 0,-14 -11.01,9.31 -26.27,17.93 -41,18 0,0 -11,0 -11,0 -18.61,-0.09 -33.58,-10.34 -39.91,-28 -2.2,-6.13 -3.08,-12.53 -3.09,-19 0,0 0,-97 0,-97 z m 1068,0 c 0,0 45,0 45,0 0,0 0,140 0,140 0,0 -45,0 -45,0 0,0 0,-140 0,-140 z m 351,0 c 0,0 46,0 46,0 0,0 0,82 0,82 0.11,9.33 2.47,19.61 12,23.52 7.9,3.24 19.28,1.37 27,-1.58 2.6,-1 7.47,-2.96 8.98,-5.33 1.24,-1.95 1.02,-5.34 1.02,-7.61 0,0 0,-91 0,-91 0,0 46,0 46,0 0,0 0,140 0,140 0,0 -46,0 -46,0 0,0 0,-14 0,-14 -11.01,9.31 -26.27,17.93 -41,18 0,0 -11,0 -11,0 -18.61,-0.09 -33.58,-10.34 -39.91,-28 -2.2,-6.13 -3.08,-12.53 -3.09,-19 0,0 0,-97 0,-97 z m 630,0 c 0,0 45,0 45,0 0,0 0,140 0,140 0,0 -45,0 -45,0 0,0 0,-140 0,-140 z m -1595,52 c -0.61,-7.51 -2.11,-16.41 -8.1,-21.61 -6.58,-5.71 -13.81,-5.48 -21.9,-5.39 -16.6,0.2 -26.64,10.53 -27,27 0,0 57,0 57,0 z m -208,-21.52 c -22.18,4.14 -26.22,21.98 -26,41.52 0.2,16.87 7.41,30.77 26,31 7.11,0.08 22.71,-0.7 26.98,-7.39 1.15,-1.81 1.01,-4.53 1.02,-6.61 0,0 0,-48 0,-48 0,-2.08 0.23,-5.74 -1.02,-7.44 -1.3,-1.76 -4.92,-2.47 -6.98,-3.08 -4.7,-0.79 -15.1,-0.67 -20,0 z m 529,0.02 c -21.71,4.7 -26.03,23.15 -26,42.5 0.03,17.53 5.05,35.74 26,36 7.33,0.08 22.82,-1.17 26.98,-8.21 1.02,-1.74 0.98,-3.85 1.02,-5.79 0,0 0,-54 0,-54 0,-2.03 0.26,-5.64 -0.99,-7.3 -1.32,-1.74 -4.95,-2.59 -7.01,-3.2 -4.55,-0.81 -15.25,-0.7 -20,0 z m 530,0 c -21.71,4.7 -26.03,23.15 -26,42.5 0.03,17.53 5.05,35.74 26,36 7.33,0.08 22.82,-1.17 26.98,-8.21 1.02,-1.74 0.98,-3.85 1.02,-5.79 0,0 0,-54 0,-54 0,-2.03 0.26,-5.64 -0.99,-7.3 -1.32,-1.74 -4.95,-2.59 -7.01,-3.2 -4.55,-0.81 -15.25,-0.7 -20,0 z m 542,-0.02 c -22.18,4.14 -26.22,21.98 -26,41.52 0.2,16.87 7.41,30.77 26,31 7.11,0.08 22.71,-0.7 26.98,-7.39 1.15,-1.81 1.01,-4.53 1.02,-6.61 0,0 0,-48 0,-48 0,-2.08 0.23,-5.74 -1.02,-7.44 -1.3,-1.76 -4.92,-2.47 -6.98,-3.08 -4.7,-0.79 -15.1,-0.67 -20,0 z M 4433,2344 c 11.45,2.3 28.62,4.45 39,-2.13 15.65,-9.93 15.19,-27.66 15,-43.87 -0.09,-7.48 -2.29,-17.93 -6.94,-23.91 -7.42,-9.55 -23.36,-9.68 -34.06,-6.66 -8.44,2.38 -12.94,3.15 -13,12.57 0,0 0,26 0,26 0,0 0,38 0,38 z m -1716,209 c 0,-9.53 0.38,-18.97 3.93,-28 7.2,-18.33 25.18,-26.91 44.07,-27 0,0 11,0 11,0 12.35,0 16.47,-0.25 29,2 0,0 0,32 0,32 -13.05,-0.04 -36.56,-8.74 -42.2,9 -0.73,2.28 -1.59,9.39 -1.8,12 0,0 35,0 35,0 0,0 0,30 0,30 0,0 -33,0 -33,0 0,0 0,110 0,110 0,0 -46,0 -46,0 0,0 0,-110 0,-110 0,0 -19,0 -19,0 0,0 0,-30 0,-30 0,0 19,0 19,0 z m 2621,0 c 0,-9.53 0.38,-18.97 3.93,-28 7.2,-18.33 25.18,-26.91 44.07,-27 0,0 11,0 11,0 12.35,0 16.47,-0.25 29,2 0,0 0,32 0,32 -13.05,-0.04 -36.56,-8.74 -42.2,9 -0.73,2.28 -1.59,9.39 -1.8,12 0,0 35,0 35,0 0,0 0,30 0,30 0,0 -33,0 -33,0 0,0 0,110 0,110 0,0 -46,0 -46,0 0,0 0,-110 0,-110 0,0 -19,0 -19,0 0,0 0,-30 0,-30 0,0 19,0 19,0 z m -3451,-54 c 0,0 45,0 45,0 0,0 0,194 0,194 0,0 -45,0 -45,0 0,0 0,-194 0,-194 z m 87,0 c 0,0 45,0 45,0 0,0 0,194 0,194 0,0 -45,0 -45,0 0,0 0,-194 0,-194 z m 388,0 c 0,0 45,0 45,0 0,0 0,68 0,68 14.22,-10.07 25.91,-17.97 44,-18 15.85,-0.02 29.43,0.87 40.68,14.01 7.83,9.17 11.26,23.11 11.32,34.99 0,0 0,95 0,95 0,0 -46,0 -46,0 0,0 0,-63 0,-63 0,-8.8 0.19,-26.32 -3.57,-34 -6.22,-12.72 -24.24,-11.84 -35.43,-7.13 -2.88,1.22 -8.39,3.65 -9.98,6.34 -1.22,2.08 -1.02,5.41 -1.02,7.79 0,0 0,90 0,90 0,0 -45,0 -45,0 0,0 0,-194 0,-194 z m 1118,0 c 0,0 46,0 46,0 0,0 0,194 0,194 0,0 -46,0 -46,0 0,0 0,-13 0,-13 -9.01,6.38 -17.07,12.71 -28,15.52 -7.41,1.91 -14.42,1.57 -22,1.48 -5.42,-0.07 -8.9,-0.88 -14,-2.7 -25.63,-9.16 -36.96,-38.98 -37,-64.3 0,0 0,-14 0,-14 0.3,-25.52 15.9,-52.78 40,-62.55 13,-5.27 18.45,-4.6 32,-4.45 11.61,0.14 18.48,4.35 29,8 0,0 0,-58 0,-58 z m 460,0 c 0,0 49,0 49,0 0,0 0,34 0,34 0,0 -49,0 -49,0 0,0 0,-34 0,-34 z m 1043,0 c 0,0 45,0 45,0 0,0 0,68 0,68 14.22,-10.07 25.91,-17.97 44,-18 15.85,-0.02 29.43,0.87 40.68,14.01 7.83,9.17 11.26,23.11 11.32,34.99 0,0 0,95 0,95 0,0 -46,0 -46,0 0,0 0,-63 0,-63 0,-8.8 0.19,-26.32 -3.57,-34 -6.22,-12.72 -24.24,-11.84 -35.43,-7.13 -2.88,1.22 -8.39,3.65 -9.98,6.34 -1.22,2.08 -1.02,5.41 -1.02,7.79 0,0 0,90 0,90 0,0 -45,0 -45,0 0,0 0,-194 0,-194 z m -3625,92 c 0,0 0,84 0,84 0,2.14 0.23,5.71 -1.02,7.49 -2.03,2.89 -16.05,6.3 -19.98,7.36 -26.19,7.08 -38.34,7.46 -65,7.15 -29.95,-0.35 -61.07,-16.03 -76.55,-42 -8.79,-14.75 -11.01,-28.34 -12.62,-45 -0.43,-4.5 -0.93,-6.13 -0.82,-11 0.9,-39.57 19.19,-74.23 57.99,-88.31 21.31,-7.73 36.93,-6.94 59,-6.69 12.31,0.15 31.44,4.68 43,9.06 13.28,5.04 14.98,5.27 15,14.94 0,0 0,36 0,36 -2.34,-0.02 -4.75,0.08 -7,-0.72 0,0 -24,-14.96 -24,-14.96 -14.08,-7.41 -24.52,-8.5 -40,-8.32 -32.47,0.38 -52.95,28.37 -53,59 -0.02,13.57 2.45,27.51 10.1,39 10.2,15.32 28.76,23.91 46.9,24 0,0 19,0 19,0 0,0 0,-36 0,-36 0,0 -37,0 -37,0 0,0 0,-35 0,-35 0,0 86,0 86,0 z m 2283,-83 c 0,0 51,0 51,0 0,0 17.12,77 17.12,77 0,0 10.88,47 10.88,47 0,0 7.12,-27 7.12,-27 0,0 17.03,-64 17.03,-64 0,0 8.85,-33 8.85,-33 0,0 41,0 41,0 0,0 7.28,0.99 7.28,0.99 0,0 3.09,8.01 3.09,8.01 0,0 5,19 5,19 0,0 16,63 16,63 0,0 7.63,32 7.63,32 0,0 2,0 2,0 0,0 7.58,-35 7.58,-35 0,0 12.3,-53 12.3,-53 0,0 8.12,-35 8.12,-35 0,0 50,0 50,0 0,0 -13.58,51 -13.58,51 0,0 -24.54,91 -24.54,91 0,0 -7.76,29 -7.76,29 0,0 -4.05,12.4 -4.05,12.4 0,0 -8.07,1.6 -8.07,1.6 0,0 -38,0 -38,0 0,0 -7.28,-0.99 -7.28,-0.99 0,0 -3.3,-8.01 -3.3,-8.01 0,0 -5.13,-19 -5.13,-19 0,0 -16.87,-61 -16.87,-61 0,0 -8.42,-29 -8.42,-29 0,0 -7.12,28 -7.12,28 0,0 -16.76,63 -16.76,63 0,0 -7.12,27 -7.12,27 0,0 -55,0 -55,0 0,0 -10.12,-39 -10.12,-39 0,0 -25.3,-94 -25.3,-94 0,0 -13.58,-52 -13.58,-52 z m 2248,0 c 0,0 43,0 43,0 0,0 7.3,0.99 7.3,0.99 0,0 4.03,9.01 4.03,9.01 0,0 7,20 7,20 0,0 18.34,53 18.34,53 0,0 15.33,44 15.33,44 0,0 15.33,-44 15.33,-44 0,0 18.34,-53 18.34,-53 0,0 6.99,-20 6.99,-20 0,0 4.04,-9.01 4.04,-9.01 0,0 7.3,-0.99 7.3,-0.99 0,0 42,0 42,0 0,0 -15.95,45 -15.95,45 0,0 -35.39,97 -35.39,97 0,0 -10.97,30 -10.97,30 0,0 -5.39,12.01 -5.39,12.01 0,0 -7.3,0.99 -7.3,0.99 0,0 -39,0 -39,0 0,0 -8.16,-1.6 -8.16,-1.6 0,0 -5.53,-13.4 -5.53,-13.4 0,0 -9.89,-27 -9.89,-27 0,0 -32.84,-90 -32.84,-90 0,0 -11,-30 -11,-30 0,0 -7.58,-23 -7.58,-23 z m -3065,5 c 0,0 46,0 46,0 0,0 0,40 0,40 0,0 42,0 42,0 0,0 0,30 0,30 0,0 -42,0 -42,0 0,0 0,59 0,59 0.1,8.49 1.73,16.97 10,21.16 10.13,5.13 21.57,-1.06 32,-1.16 0,0 0,31 0,31 -8.95,1.21 -14.49,2.99 -24,3 -18.95,0.03 -41.04,2 -54.79,-14 -6.76,-7.88 -9.09,-22.82 -9.21,-33 0,0 0,-66 0,-66 0,0 -18,0 -18,0 0,0 0,-30 0,-30 0,0 18,0 18,0 0,0 0,-40 0,-40 z m 2621,0 c 0,0 46,0 46,0 0,0 0,40 0,40 0,0 42,0 42,0 0,0 0,30 0,30 0,0 -42,0 -42,0 0,0 0,59 0,59 0.1,8.49 1.73,16.97 10,21.16 10.13,5.13 21.57,-1.06 32,-1.16 0,0 0,31 0,31 -8.95,1.21 -14.49,2.99 -24,3 -18.95,0.03 -41.04,2 -54.79,-14 -6.76,-7.88 -9.09,-22.82 -9.21,-33 0,0 0,-66 0,-66 0,0 -18,0 -18,0 0,0 0,-30 0,-30 0,0 18,0 18,0 0,0 0,-40 0,-40 z m -3911,136 c 0,0 0,29 0,29 0,2.06 0.26,5.62 -0.99,7.3 -1.92,2.59 -13.54,5.9 -17.01,6.82 -21.87,5.77 -31.85,5.14 -54,4.88 -22.32,-0.26 -48.87,-10.57 -62.22,-29 -9.02,-12.46 -12.44,-28.85 -12.44,-44 0,-32.04 15,-59.99 46.66,-70.64 15.15,-5.1 27.37,-4.54 43,-4.36 13.79,0.17 30.75,5.82 40.99,15.17 19.77,18.08 18.01,42.67 18.01,66.83 0,0 -102,0 -102,0 0.35,4.26 1.03,8.01 2.63,12 8.12,20.23 28.64,22.22 47.37,22 6.46,-0.08 12.92,-1.57 19,-3.69 11.95,-4.17 21.52,-10.78 24,-11.61 2.3,-0.77 4.62,-0.68 7,-0.7 z m 23,0 c 10.1,0.12 11.23,3.97 20,7.97 9.74,4.45 23.26,8.9 34,9.03 0,0 10,0 10,0 5.63,-0.01 11.2,-0.2 15.98,-3.65 5.34,-3.85 6.64,-9.36 0.91,-13.65 -5.42,-4.07 -20.88,-5.96 -27.89,-7.13 -24.99,-4.2 -51.65,-13.41 -52,-43.57 -0.06,-5.52 -0.01,-8.64 1.75,-14 7.98,-24.37 37.64,-34.96 61.25,-35 0,0 18,0 18,0 10.14,0.02 22.2,2.47 32,5.15 2.59,0.71 9.47,2.5 11.01,4.55 1.25,1.67 0.99,5.26 0.99,7.3 0,0 0,28 0,28 -9.58,-0.12 -10.65,-3.17 -19,-6.77 -8.57,-3.7 -19.63,-7.12 -29,-7.23 0,0 -7,0 -7,0 -5.99,0.01 -12.8,0.58 -17.96,3.99 -5.53,3.66 -6.3,9.2 -0.93,13.5 4.72,3.79 17.74,5.82 23.89,6.93 20.51,3.7 45.77,6.96 53.91,29.58 2.21,6.14 2.12,9.66 2.09,16 -0.03,5.42 -0.46,8.87 -2.46,14 -8.97,22.92 -37.57,32.96 -60.54,33 0,0 -21,0 -21,0 -10.88,-0.02 -24.58,-2.8 -35,-6.02 -2.65,-0.83 -9.66,-2.85 -11.4,-4.68 -1.95,-2.05 -1.59,-5.65 -1.6,-8.3 0,0 0,-29 0,-29 z m 297,0 c 0,0 0,29 0,29 0,2.06 0.26,5.62 -0.99,7.3 -1.92,2.59 -13.54,5.9 -17.01,6.82 -21.87,5.77 -31.85,5.14 -54,4.88 -22.32,-0.26 -48.87,-10.57 -62.22,-29 -9.02,-12.46 -12.44,-28.85 -12.44,-44 0,-32.04 15,-59.99 46.66,-70.64 15.15,-5.1 27.37,-4.54 43,-4.36 13.79,0.17 30.75,5.82 40.99,15.17 19.77,18.08 18.01,42.67 18.01,66.83 0,0 -102,0 -102,0 0.35,4.26 1.03,8.01 2.63,12 8.12,20.23 28.64,22.22 47.37,22 6.46,-0.08 12.92,-1.57 19,-3.69 11.95,-4.17 21.52,-10.78 24,-11.61 2.3,-0.77 4.62,-0.68 7,-0.7 z m 197,0 c 10.1,0.12 11.23,3.97 20,7.97 9.74,4.45 23.26,8.9 34,9.03 0,0 10,0 10,0 5.63,-0.01 11.2,-0.2 15.98,-3.65 5.34,-3.85 6.64,-9.36 0.91,-13.65 -5.42,-4.07 -20.88,-5.96 -27.89,-7.13 -24.99,-4.2 -51.65,-13.41 -52,-43.57 -0.06,-5.52 -0.01,-8.64 1.75,-14 7.98,-24.37 37.64,-34.96 61.25,-35 0,0 18,0 18,0 10.14,0.02 22.2,2.47 32,5.15 2.59,0.71 9.47,2.5 11.01,4.55 1.25,1.67 0.99,5.26 0.99,7.3 0,0 0,28 0,28 -9.58,-0.12 -10.65,-3.17 -19,-6.77 -8.57,-3.7 -19.63,-7.12 -29,-7.23 0,0 -7,0 -7,0 -5.99,0.01 -12.8,0.58 -17.96,3.99 -5.53,3.66 -6.3,9.2 -0.93,13.5 4.72,3.79 17.74,5.82 23.89,6.93 20.51,3.7 45.77,6.96 53.91,29.58 2.21,6.14 2.12,9.66 2.09,16 -0.03,5.42 -0.46,8.87 -2.46,14 -8.97,22.92 -37.57,32.96 -60.54,33 0,0 -21,0 -21,0 -10.88,-0.02 -24.58,-2.8 -35,-6.02 -2.65,-0.83 -9.66,-2.85 -11.4,-4.68 -1.95,-2.05 -1.59,-5.65 -1.6,-8.3 0,0 0,-29 0,-29 z m 282,-1 c 0,0 0,31 0,31 0,2.1 0.25,5.61 -0.99,7.35 -1.48,2.08 -7.51,4.07 -10.01,4.96 -9.2,3.27 -19.21,5.64 -29,5.69 0,0 -17,0 -17,0 -18.99,-0.03 -40.92,-7.21 -54.91,-20.29 -13.52,-12.64 -17.95,-28.98 -19.18,-46.71 -0.22,-3.14 -0.83,-4.71 -0.59,-8 1.96,-26.13 7.55,-46.6 31.68,-61.17 11.27,-6.81 28.82,-11.77 42,-11.83 0,0 18,0 18,0 16.1,0.19 25.69,5.95 40,10 0,0 0,39 0,39 -13.03,-0.04 -11.91,-4.41 -23,-9.68 -12.7,-6.03 -31.62,-8.4 -44,-0.51 -20.9,13.33 -23.17,50.69 -4.99,67.01 9.25,8.29 18.43,8.31 29.99,8.18 7.68,-0.09 15.34,-2.54 22,-6.34 9.53,-5.43 8.01,-8.62 20,-8.66 z m 212,-93 c 14.59,-1.97 29.21,-5.98 44,-6 13.38,-0.02 26.75,-0.63 40,1.42 12.45,1.94 27.27,6.42 35.48,16.59 10.57,13.1 9.52,29.25 9.52,44.99 0,0 0,81 0,81 0,0 -46,0 -46,0 0,0 0,-13 0,-13 -5.22,3.7 -12.33,9.03 -18,11.68 -12.05,5.63 -21.2,5.47 -34,5.32 -28.59,-0.34 -46.21,-24.69 -42.27,-52 1.31,-9.08 3.93,-16.15 10.44,-22.91 6.2,-6.44 15.43,-10.65 23.83,-13.42 15.36,-5.06 44.58,-7.67 61,-7.67 -0.98,-3.88 -1.26,-7.61 -3.65,-10.98 -5.81,-8.21 -18.01,-10.01 -27.35,-10.02 -6.1,-0.01 -13.11,-0.44 -19,0.89 -11.36,2.56 -22.46,8.08 -34,8.11 0,0 0,-34 0,-34 z m 707,12 c 14.22,-10.07 25.91,-17.97 44,-18 15.85,-0.02 29.43,0.87 40.68,14.01 7.83,9.17 11.26,23.11 11.32,34.99 0,0 0,95 0,95 0,0 -46,0 -46,0 0,0 0,-63 0,-63 0,-8.8 0.19,-26.32 -3.57,-34 -6.22,-12.72 -24.24,-11.84 -35.43,-7.13 -2.88,1.22 -8.39,3.65 -9.98,6.34 -1.22,2.08 -1.02,5.41 -1.02,7.79 0,0 0,90 0,90 0,0 -45,0 -45,0 0,0 0,-140 0,-140 0,0 45,0 45,0 0,0 0,14 0,14 z m 767,82 c 10.1,0.12 11.23,3.97 20,7.97 9.74,4.45 23.26,8.9 34,9.03 0,0 10,0 10,0 5.63,-0.01 11.2,-0.2 15.98,-3.65 5.34,-3.85 6.64,-9.36 0.91,-13.65 -5.42,-4.07 -20.88,-5.96 -27.89,-7.13 -24.99,-4.2 -51.65,-13.41 -52,-43.57 -0.06,-5.52 -0.01,-8.64 1.75,-14 7.98,-24.37 37.64,-34.96 61.25,-35 0,0 18,0 18,0 10.14,0.02 22.2,2.47 32,5.15 2.59,0.71 9.47,2.5 11.01,4.55 1.25,1.67 0.99,5.26 0.99,7.3 0,0 0,28 0,28 -9.58,-0.12 -10.65,-3.17 -19,-6.77 -8.57,-3.7 -19.63,-7.12 -29,-7.23 0,0 -7,0 -7,0 -5.99,0.01 -12.8,0.58 -17.96,3.99 -5.53,3.66 -6.3,9.2 -0.93,13.5 4.72,3.79 17.74,5.82 23.89,6.93 20.51,3.7 45.77,6.96 53.91,29.58 2.21,6.14 2.12,9.66 2.09,16 -0.03,5.42 -0.46,8.87 -2.46,14 -8.97,22.92 -37.57,32.96 -60.54,33 0,0 -21,0 -21,0 -10.88,-0.02 -24.58,-2.8 -35,-6.02 -2.65,-0.83 -9.66,-2.85 -11.4,-4.68 -1.95,-2.05 -1.59,-5.65 -1.6,-8.3 0,0 0,-29 0,-29 z m 151,0 c 10.1,0.12 11.23,3.97 20,7.97 9.74,4.45 23.26,8.9 34,9.03 0,0 10,0 10,0 5.63,-0.01 11.2,-0.2 15.98,-3.65 5.34,-3.85 6.64,-9.36 0.91,-13.65 -5.42,-4.07 -20.88,-5.96 -27.89,-7.13 -24.99,-4.2 -51.65,-13.41 -52,-43.57 -0.06,-5.52 -0.01,-8.64 1.75,-14 7.98,-24.37 37.64,-34.96 61.25,-35 0,0 18,0 18,0 10.14,0.02 22.2,2.47 32,5.15 2.59,0.71 9.47,2.5 11.01,4.55 1.25,1.67 0.99,5.26 0.99,7.3 0,0 0,28 0,28 -9.58,-0.12 -10.65,-3.17 -19,-6.77 -8.57,-3.7 -19.63,-7.12 -29,-7.23 0,0 -7,0 -7,0 -5.99,0.01 -12.8,0.58 -17.96,3.99 -5.53,3.66 -6.3,9.2 -0.93,13.5 4.72,3.79 17.74,5.82 23.89,6.93 20.51,3.7 45.77,6.96 53.91,29.58 2.21,6.14 2.12,9.66 2.09,16 -0.03,5.42 -0.46,8.87 -2.46,14 -8.97,22.92 -37.57,32.96 -60.54,33 0,0 -21,0 -21,0 -10.88,-0.02 -24.58,-2.8 -35,-6.02 -2.65,-0.83 -9.66,-2.85 -11.4,-4.68 -1.95,-2.05 -1.59,-5.65 -1.6,-8.3 0,0 0,-29 0,-29 z m 297,0 c 0,0 0,29 0,29 0,2.06 0.26,5.62 -0.99,7.3 -1.92,2.59 -13.54,5.9 -17.01,6.82 -21.87,5.77 -31.85,5.14 -54,4.88 -22.32,-0.26 -48.87,-10.57 -62.22,-29 -9.02,-12.46 -12.44,-28.85 -12.44,-44 0,-32.04 15,-59.99 46.66,-70.64 15.15,-5.1 27.37,-4.54 43,-4.36 13.79,0.17 30.75,5.82 40.99,15.17 19.77,18.08 18.01,42.67 18.01,66.83 0,0 -102,0 -102,0 0.35,4.26 1.03,8.01 2.63,12 8.12,20.23 28.64,22.22 47.37,22 6.46,-0.08 12.92,-1.57 19,-3.69 11.95,-4.17 21.52,-10.78 24,-11.61 2.3,-0.77 4.62,-0.68 7,-0.7 z m 78,-82 c 14.22,-10.07 25.91,-17.97 44,-18 15.85,-0.02 29.43,0.87 40.68,14.01 7.83,9.17 11.26,23.11 11.32,34.99 0,0 0,95 0,95 0,0 -46,0 -46,0 0,0 0,-63 0,-63 0,-8.8 0.19,-26.32 -3.57,-34 -6.22,-12.72 -24.24,-11.84 -35.43,-7.13 -2.88,1.22 -8.39,3.65 -9.98,6.34 -1.22,2.08 -1.02,5.41 -1.02,7.79 0,0 0,90 0,90 0,0 -45,0 -45,0 0,0 0,-140 0,-140 0,0 45,0 45,0 0,0 0,14 0,14 z m 127,82 c 10.1,0.12 11.23,3.97 20,7.97 9.74,4.45 23.26,8.9 34,9.03 0,0 10,0 10,0 5.63,-0.01 11.2,-0.2 15.98,-3.65 5.34,-3.85 6.64,-9.36 0.91,-13.65 -5.42,-4.07 -20.88,-5.96 -27.89,-7.13 -24.99,-4.2 -51.65,-13.41 -52,-43.57 -0.06,-5.52 -0.01,-8.64 1.75,-14 7.98,-24.37 37.64,-34.96 61.25,-35 0,0 18,0 18,0 10.14,0.02 22.2,2.47 32,5.15 2.59,0.71 9.47,2.5 11.01,4.55 1.25,1.67 0.99,5.26 0.99,7.3 0,0 0,28 0,28 -9.58,-0.12 -10.65,-3.17 -19,-6.77 -8.57,-3.7 -19.63,-7.12 -29,-7.23 0,0 -7,0 -7,0 -5.99,0.01 -12.8,0.58 -17.96,3.99 -5.53,3.66 -6.3,9.2 -0.93,13.5 4.72,3.79 17.74,5.82 23.89,6.93 20.51,3.7 45.77,6.96 53.91,29.58 2.21,6.14 2.12,9.66 2.09,16 -0.03,5.42 -0.46,8.87 -2.46,14 -8.97,22.92 -37.57,32.96 -60.54,33 0,0 -21,0 -21,0 -10.88,-0.02 -24.58,-2.8 -35,-6.02 -2.65,-0.83 -9.66,-2.85 -11.4,-4.68 -1.95,-2.05 -1.59,-5.65 -1.6,-8.3 0,0 0,-29 0,-29 z m 282,-1 c 0,0 0,31 0,31 0,2.1 0.25,5.61 -0.99,7.35 -1.48,2.08 -7.51,4.07 -10.01,4.96 -9.2,3.27 -19.21,5.64 -29,5.69 0,0 -17,0 -17,0 -18.99,-0.03 -40.92,-7.21 -54.91,-20.29 -13.52,-12.64 -17.95,-28.98 -19.18,-46.71 -0.22,-3.14 -0.83,-4.71 -0.59,-8 1.96,-26.13 7.55,-46.6 31.68,-61.17 11.27,-6.81 28.82,-11.77 42,-11.83 0,0 18,0 18,0 16.1,0.19 25.69,5.95 40,10 0,0 0,39 0,39 -13.03,-0.04 -11.91,-4.41 -23,-9.68 -12.7,-6.03 -31.62,-8.4 -44,-0.51 -20.9,13.33 -23.17,50.69 -4.99,67.01 9.25,8.29 18.43,8.31 29.99,8.18 7.68,-0.09 15.34,-2.54 22,-6.34 9.53,-5.43 8.01,-8.62 20,-8.66 z m 212,-93 c 14.59,-1.97 29.21,-5.98 44,-6 13.38,-0.02 26.75,-0.63 40,1.42 12.45,1.94 27.27,6.42 35.48,16.59 10.57,13.1 9.52,29.25 9.52,44.99 0,0 0,81 0,81 0,0 -46,0 -46,0 0,0 0,-13 0,-13 -5.22,3.7 -12.33,9.03 -18,11.68 -12.05,5.63 -21.2,5.47 -34,5.32 -28.59,-0.34 -46.21,-24.69 -42.27,-52 1.31,-9.08 3.93,-16.15 10.44,-22.91 6.2,-6.44 15.43,-10.65 23.83,-13.42 15.36,-5.06 44.58,-7.67 61,-7.67 -0.98,-3.88 -1.26,-7.61 -3.65,-10.98 -5.81,-8.21 -18.01,-10.01 -27.35,-10.02 -6.1,-0.01 -13.11,-0.44 -19,0.89 -11.36,2.56 -22.46,8.08 -34,8.11 0,0 0,-34 0,-34 z m 616,94 c 0,0 0,29 0,29 0,2.06 0.26,5.62 -0.99,7.3 -1.92,2.59 -13.54,5.9 -17.01,6.82 -21.87,5.77 -31.85,5.14 -54,4.88 -22.32,-0.26 -48.87,-10.57 -62.22,-29 -9.02,-12.46 -12.44,-28.85 -12.44,-44 0,-32.04 15,-59.99 46.66,-70.64 15.15,-5.1 27.37,-4.54 43,-4.36 13.79,0.17 30.75,5.82 40.99,15.17 19.77,18.08 18.01,42.67 18.01,66.83 0,0 -102,0 -102,0 0.35,4.26 1.03,8.01 2.63,12 8.12,20.23 28.64,22.22 47.37,22 6.46,-0.08 12.92,-1.57 19,-3.69 11.95,-4.17 21.52,-10.78 24,-11.61 2.3,-0.77 4.62,-0.68 7,-0.7 z m -2758,-96 c 0,0 46,0 46,0 0,0 0,82 0,82 0.11,9.33 2.47,19.61 12,23.52 7.9,3.24 19.28,1.37 27,-1.58 2.6,-1 7.47,-2.96 8.98,-5.33 1.24,-1.95 1.02,-5.34 1.02,-7.61 0,0 0,-91 0,-91 0,0 46,0 46,0 0,0 0,140 0,140 0,0 -46,0 -46,0 0,0 0,-14 0,-14 -11.01,9.31 -26.27,17.93 -41,18 0,0 -11,0 -11,0 -18.61,-0.09 -33.58,-10.34 -39.91,-28 -2.2,-6.13 -3.08,-12.53 -3.09,-19 0,0 0,-97 0,-97 z m 918,0 c 0,0 45,0 45,0 0,0 0,140 0,140 0,0 -45,0 -45,0 0,0 0,-140 0,-140 z m -2451,52 c -0.61,-7.51 -2.11,-16.41 -8.1,-21.61 -6.58,-5.71 -13.81,-5.48 -21.9,-5.39 -16.6,0.2 -26.64,10.53 -27,27 0,0 57,0 57,0 z m 320,0 c -0.61,-7.51 -2.11,-16.41 -8.1,-21.61 -6.58,-5.71 -13.81,-5.48 -21.9,-5.39 -16.6,0.2 -26.64,10.53 -27,27 0,0 57,0 57,0 z m 2613,0 c -0.61,-7.51 -2.11,-16.41 -8.1,-21.61 -6.58,-5.71 -13.81,-5.48 -21.9,-5.39 -16.6,0.2 -26.64,10.53 -27,27 0,0 57,0 57,0 z m 1315,0 c -0.61,-7.51 -2.11,-16.41 -8.1,-21.61 -6.58,-5.71 -13.81,-5.48 -21.9,-5.39 -16.6,0.2 -26.64,10.53 -27,27 0,0 57,0 57,0 z m -2287,-21.5 c -21.71,4.7 -26.03,23.15 -26,42.5 0.03,17.53 5.05,35.74 26,36 7.33,0.08 22.82,-1.17 26.98,-8.21 1.02,-1.74 0.98,-3.85 1.02,-5.79 0,0 0,-54 0,-54 0,-2.03 0.26,-5.64 -0.99,-7.3 -1.32,-1.74 -4.95,-2.59 -7.01,-3.2 -4.55,-0.81 -15.25,-0.7 -20,0 z m -824,44.5 c -7.05,0.01 -14.03,0.9 -21,1.87 -4.75,0.66 -10.52,1.56 -15,3.22 -8.65,3.22 -12.2,8.91 -11.98,17.91 0.1,4.29 0.89,7.58 4.19,10.61 7.23,6.65 25.36,5.2 33.79,1.52 2.9,-1.27 7.38,-3.51 8.98,-6.31 1.22,-2.15 1.02,-5.39 1.02,-7.82 0,0 0,-21 0,-21 z m 2621,0 c -7.05,0.01 -14.03,0.9 -21,1.87 -4.75,0.66 -10.52,1.56 -15,3.22 -8.65,3.22 -12.2,8.91 -11.98,17.91 0.1,4.29 0.89,7.58 4.19,10.61 7.23,6.65 25.36,5.2 33.79,1.52 2.9,-1.27 7.38,-3.51 8.98,-6.31 1.22,-2.15 1.02,-5.39 1.02,-7.82 0,0 0,-21 0,-21 z m 567,16 c 0,0 48,0 48,0 0,0 0,49 0,49 0,0 -48,0 -48,0 0,0 0,-49 0,-49 z m 287,0 c 0,0 48,0 48,0 0,0 0,49 0,49 0,0 -48,0 -48,0 0,0 0,-49 0,-49 z"></path></g></g></g></svg> 